<?xml version="1.0" encoding="UTF-8"?>
<svg enable-background="new 0 0 1000 500" version="1.1" viewBox="0 0 1000 500" xml:space="preserve" xmlns="http://www.w3.org/2000/svg">
<path d="m396.2 140.5c-0.2-0.4-0.5-0.8-0.7-1.2-6.9-10.9-21.2-14.2-32.1-7.3-8.7 5.5-11.3 17-5.8 25.7 4.4 7 13.6 9.1 20.6 4.7 5.6-3.5 7.2-10.9 3.7-16.4 2.7 4.3 1.4 9.9-2.9 12.6-5.3 3.4-12.4 1.8-15.7-3.6-4.5-7.1-1.9-16.5 5.7-20.4 5.4-2.7 11.8-1.7 16.6 2 9.1 7 9 16.4 4.8 24.3-2.4 4.6-6.2 8.3-10.7 10.9-30.3 17.6-45 19.5-67.3 2-52.9-41.4-83.4-32-89.2-29.7-5.7-2.4-36.3-11.7-89.2 29.7-22.3 17.5-37 15.6-67.3-2-4.5-2.6-8.2-6.4-10.7-10.9-4.2-7.9-4.3-17.3 4.8-24.3 4.8-3.7 11.2-4.7 16.6-2 7.7 3.8 10.2 13.3 5.7 20.4-3.4 5.3-10.4 6.9-15.7 3.6-4.3-2.7-5.5-8.3-2.9-12.6-3.5 5.6-1.8 12.9 3.7 16.4 7 4.4 16.2 2.3 20.6-4.7 5.5-8.7 2.9-20.2-5.8-25.7-10.9-6.9-25.3-3.6-32.1 7.3-0.2 0.4-0.5 0.8-0.7 1.2-5.5 9.8-3.2 25.6 3.7 34.5 15.9 20.6 33.7 46.5 126.9 46.5 30.7 0 39.8-19.8 42.3-47.5 2.6 27.7 11.6 47.5 42.3 47.5 93.2 0 111-26 126.9-46.5 7.1-8.9 9.4-24.7 3.9-34.5z"/>
</svg>
