<?xml version="1.0" encoding="UTF-8"?>
<svg width="242.92mm" height="67.782mm" version="1.1" viewBox="0 0 860.74021 240.17089" xmlns="http://www.w3.org/2000/svg">
 <g transform="translate(-120.39 -401.91)">
  <path d="m758.56 641.51c-48.047-0.7833-95.293-6.7467-140.98-22.358-20.9-7.1418-40.739-16.413-58.212-30.254-4.1844-3.3146-9.3121-1.8564-14.004-1.3314-5.1538 0.5768-9.999 2.5394-14.504 5.1302-3.6053 2.0731-7.442 3.9553-10.553 6.6431-23.345 20.168-51.715 28.197-81.076 33.702-64.25 12.048-128.51 12.296-192.65-0.8104-29.181-5.9634-57.282-15.064-82.74-31.059-5.9352-3.7289-11.522-7.9279-16.732-12.63-30.012-27.082-35.208-65.252-13.21-99.273 12.009-18.572 28.194-31.425 50.778-34.505 13.065-1.782 25.057 1.6312 36.317 8.2446 2.4727 1.452 2.2056 2.8766 0.99149 4.8148-2.1535 3.4382-5.46 5.2372-9.1276 6.5927-6.6034 2.4407-13.579 3.2606-20.403 4.7188-22.206 4.7439-29.122 16.404-22.518 38.178 5.5504 18.301 20.902 27.145 41.966 24.505 24.149-3.0276 45.538-13.219 66.326-25.061 23.77-13.541 43.912-31.842 64.651-49.356 21.781-18.395 43.711-36.583 69.263-49.716 21.584-11.093 44.296-17.204 68.779-15.503 20.671 1.4354 39.705 8.1438 57.579 18.239 4.0658 2.2965 7.0081 2.5387 11.282 0.3375 27.7-14.268 56.935-21.287 88.273-17.523 24.212 2.9077 46.343 11.726 67.39 23.622 26.512 14.986 50.058 34.115 73.91 52.836 17.952 14.09 36.039 28.015 54.316 41.68 11.24 8.4037 23.344 15.404 37.018 19.279 18.799 5.3275 35.32 1.1943 49.264-12.341 5.9019-5.7288 12.447-11.306 14.079-20.064 2.4879-13.347-2.8187-21.923-15.806-25.911-8.3085-2.5513-17.007-3.1587-25.444-5.0724-3.5822-0.8125-7.0283-1.9613-10.401-3.4401-3.226-1.4143-3.6281-2.9861-1.6365-6.0078 8.4767-12.861 22.702-17.772 39.16-13.242 29.97 8.2482 59.2 43.216 61.092 74.238 1.2341 20.236-6.0856 37.901-19.408 53.042-15.129 17.193-34.493 28.061-55.419 36.442-29.612 11.86-60.61 17.727-92.197 20.941-18.423 1.8746-36.9 2.4807-55.417 2.2734z"/>
 </g>
</svg>
