<?xml version='1.0' encoding='utf-8'?>
<svg xmlns="http://www.w3.org/2000/svg" version="1.1" width="600px" height="976px" viewBox="0 0 600 976"> <g id="layer1"> <g> <g style="fill:rgb(0,0,0); fill-opacity:1.0; stroke-linejoin: miter"> <path d="M141.04462,427.8584C141.11938,427.8584,141.23901,427.9182,141.28387,428.00793C141.32874,428.0827,141.31378,428.15747,141.22406,428.15747C141.14929,428.15747,141.02966,428.0827,140.9848,428.00793C140.93994,427.9182,140.9549,427.8584,141.04462,427.8584 Z M142.34624,428.307C142.42155,428.30762,142.63017,428.41202,142.79419,428.5313C142.94373,428.65094,143.00354,428.7556,142.91382,428.7556C142.83905,428.7556,142.6297,428.65094,142.46521,428.5313C142.3161,428.41202,142.25621,428.30762,142.3448,428.307 Z M148.55719,438.7129C148.59433,438.7129,148.63733,438.7185,148.68593,438.7297C148.85042,438.77457,148.985,438.8643,148.985,438.93906C148.985,439.01382,148.85042,439.07364,148.68593,439.07364C148.52144,439.07364,148.38686,438.98392,148.38686,438.8643C148.38686,438.76337,148.44574,438.7129,148.55719,438.7129 Z M277.909,461.1445C277.9676,461.1445,278.0108,461.21625,278.0649,461.36954C278.24435,461.81815,277.94528,462.2518,277.46677,462.2518C277.09293,462.23685,277.09293,462.2219,277.33218,462.04245C277.46677,461.93777,277.5864,461.74338,277.5864,461.62375C277.5864,461.50412,277.66116,461.33963,277.76584,461.23495C277.8252,461.1756,277.87042,461.1445,277.909,461.1445 Z M277.21255,462.99948C277.33218,462.99948,277.43686,463.0294,277.43686,463.0593C277.43686,463.0892,277.33218,463.14902,277.21255,463.20883C277.1742,463.2232,277.1374,463.22992,277.10507,463.22992C277.03656,463.22992,276.98825,463.19983,276.98825,463.14902C276.98825,463.0593,277.09293,462.99948,277.21255,462.99948 Z M276.46674,463.59763C276.7191,463.59778,276.71826,463.628,276.39008,463.80698C276.21896,463.8957,276.05322,463.93607,275.94522,463.93607C275.79837,463.93607,275.75824,463.86145,275.95642,463.7322C276.07584,463.65756,276.29956,463.59784,276.46396,463.59763 Z M168.0509,467.33603C168.08081,467.33603,168.15558,467.39584,168.20044,467.48557C168.2453,467.56033,168.18549,467.6351,168.0509,467.6351C167.91632,467.6351,167.8565,467.56033,167.90137,467.48557C167.94623,467.39584,168.021,467.33603,168.0509,467.33603 Z M167.0511,468.69388C167.17505,468.69388,167.2354,468.73273,167.1836,468.77158C167.15752,468.79764,167.10115,468.81363,167.03796,468.81363C166.99242,468.81363,166.94331,468.80533,166.89948,468.78653C166.77985,468.74167,166.8247,468.6968,166.9892,468.6968C167.01123,468.6948,167.03194,468.69388,167.0511,468.69388 Z M263.24463,470.45358C263.33658,470.45358,263.3804,470.5364,263.3804,470.7006C263.3804,470.80527,263.17105,470.96976,262.91684,471.05948C262.64417,471.15433,262.4772,471.20688,262.4058,471.20688C262.29703,471.20688,262.40964,471.08505,262.7075,470.80527C262.95895,470.57,263.13562,470.45358,263.24463,470.45358 Z M252.40265,477.55856C252.40984,477.55856,252.41551,477.56042,252.4194,477.56433C252.52408,477.669,252.29977,478.04285,252.0007,478.2223C251.90257,478.2863,251.83609,478.3174,251.80127,478.3174C251.71402,478.3174,251.82536,478.1221,252.13528,477.75873C252.23932,477.6417,252.35468,477.55856,252.40265,477.55856 Z M238.34892,479.81668C238.37932,479.81668,238.40997,479.8234,238.43774,479.83728C238.52747,479.8971,238.52747,479.98682,238.42279,480.0915C238.3599,480.1544,238.29698,480.18127,238.24573,480.18127C238.1386,480.18127,238.08238,480.06378,238.18353,479.91205C238.21451,479.8501,238.28111,479.81668,238.34892,479.81668 Z M226.94348,483.33865C226.99731,483.33865,227.00441,483.40024,226.95332,483.53082C226.92342,483.6355,226.6692,483.84485,226.40004,484.00934L225.92152,484.2785L226.35518,483.8C226.64275,483.50314,226.85551,483.33865,226.94348,483.33865 Z M225.01167,484.68695C225.14534,484.68695,225.24861,484.73355,225.24861,484.83182C225.24861,484.92154,225.12898,485.0262,224.9944,485.08603C224.84486,485.1309,224.62056,485.26547,224.50093,485.3851C223.96454,485.88025,223.70566,486.08362,223.58192,486.08362C223.5263,486.08362,223.498,486.0425,223.48409,485.9683C223.40932,485.62436,223.7383,485.1309,224.03737,485.1309C224.1869,485.1309,224.39626,485.0262,224.50093,484.9066C224.61859,484.7637,224.84015,484.68695,225.01167,484.68695 Z M216.66522,486.32718C216.78485,486.32718,216.84467,486.387,216.7998,486.4767C216.75494,486.55148,216.65027,486.62625,216.56055,486.62625C216.48578,486.62625,216.42596,486.55148,216.42596,486.4767C216.42596,486.387,216.53064,486.32718,216.66522,486.32718 Z M216.24214,486.62994C216.26453,486.62994,216.27643,486.64835,216.27643,486.68607C216.27643,486.71597,216.1568,486.8356,216.02222,486.94028C215.91292,487.02908,215.85043,487.0742,215.83333,487.0742C215.81299,487.0742,215.85681,487.0104,215.9624,486.88046C216.0955,486.71664,216.19354,486.62994,216.24214,486.62994 Z M259.45877,405.27164C259.16272,405.27164,258.931,405.29636,258.87936,405.35315C258.8046,405.41296,257.01016,405.5326,254.31851,405.6223C253.04745,405.66718,252.70352,405.74194,252.225,406.02606C251.89603,406.22046,251.59695,406.45972,251.53714,406.5345C251.52017,406.55994,251.5032,406.57214,251.4876,406.57214C251.4482,406.57214,251.41751,406.4943,251.41751,406.35504C251.41751,406.10083,251.32779,406.02606,251.04367,406.02606C250.77448,406.02606,250.6698,406.10083,250.6698,406.31018C250.6698,406.63916,250.07166,406.77374,248.48657,406.77374C247.7987,406.77374,247.33514,406.8485,247.14075,406.99805C246.9613,407.13263,246.48279,407.2074,245.76501,407.22235C244.79303,407.22235,244.58368,407.28217,244.04535,407.656C243.68646,407.91022,243.13318,408.11957,242.74438,408.17938C242.05652,408.25415,240.89014,408.74762,240.72565,409.01678C240.68079,409.09155,240.42657,409.16632,240.17236,409.16632C239.9331,409.16632,239.54431,409.25604,239.33496,409.37567C239.11066,409.4953,238.76672,409.6598,238.55737,409.7495C238.34802,409.83923,238.07886,409.97382,237.95923,410.03363C237.49564,410.3028,236.67319,410.6468,236.25449,410.7365C236.03018,410.78137,235.65634,410.94586,235.43204,411.0954C235.22269,411.24493,234.75912,411.544,234.41519,411.75336C234.07126,411.9627,233.68246,412.3515,233.53293,412.59076C233.24881,413.06927,232.75534,413.3534,232.21701,413.3534C232.03757,413.3534,231.72354,413.51788,231.5441,413.71228C231.3497,413.92163,231.05063,414.10107,230.87119,414.13098C230.67679,414.1609,230.45248,414.40015,230.288,414.72913C230.04874,415.20764,229.92911,415.29736,229.52536,415.29736C229.12161,415.29736,228.98703,415.40204,228.68796,415.8955C228.4188,416.32916,228.16457,416.5385,227.77577,416.6432C227.46175,416.7329,227.17763,416.8974,227.13277,417.01703C227.0879,417.1516,226.8636,417.24133,226.60939,417.24133C226.28041,417.24133,226.08601,417.346,225.89162,417.64508C225.47292,418.30304,224.9645,418.7367,224.59065,418.7367C224.39626,418.7367,224.157,418.84137,224.05232,418.961C223.94765,419.08063,223.78316,419.1853,223.69344,419.1853C223.60371,419.1853,223.36446,419.42456,223.17006,419.70868C222.97566,419.9928,222.7065,420.23206,222.57191,420.23206C222.42238,420.23206,222.18312,420.33673,222.01863,420.45636C221.86908,420.576,221.62982,420.68066,221.5102,420.68066C221.39056,420.68066,220.94196,421.00964,220.53821,421.42834C220.1195,421.8321,219.52136,422.3106,219.19238,422.49005C218.8634,422.6695,218.54938,422.8938,218.47461,422.99847C218.4148,423.1181,218.16058,423.23773,217.92133,423.29755C217.35309,423.41718,216.59045,424.1798,216.47083,424.7331C216.41101,425.03217,216.27643,425.1817,215.97736,425.24152C215.7381,425.30133,215.46893,425.42096,215.3792,425.5406C215.28947,425.64526,214.78105,425.8247,214.22777,425.92938C213.36046,426.10883,213.21092,426.1836,212.8969,426.67706C212.53801,427.2453,211.7006,427.8584,211.29686,427.8584C211.16228,427.8584,210.81834,428.0528,210.54918,428.307C210.2501,428.57617,209.86131,428.7556,209.62206,428.7556C209.30803,428.7556,209.1884,428.8603,209.05382,429.20422C208.96408,429.45844,208.73978,429.6977,208.57529,429.74255C208.4108,429.80237,208.12668,429.96686,207.96219,430.13135C207.80429,430.27872,207.65381,430.34457,207.47943,430.34457C207.4061,430.34457,207.32854,430.33292,207.24442,430.3108C207.1732,430.29404,207.10083,430.2855,207.02826,430.2855C206.84177,430.2855,206.65402,430.34192,206.48178,430.46033C206.28738,430.5949,206.01822,430.6996,205.88364,430.6996C205.62943,430.6996,204.53781,431.1482,203.83499,431.52203C203.62564,431.64166,203.2518,431.74634,203.01254,431.74634C202.77328,431.74634,202.32466,431.88092,201.99568,432.0454C201.6667,432.2099,201.27791,432.34448,201.09846,432.34448C200.93398,432.34448,200.53023,432.44916,200.20125,432.5688C199.87227,432.68842,199.27412,432.77814,198.88533,432.7931C198.48158,432.7931,198.00307,432.89777,197.79372,433.03235C197.56421,433.19437,197.21281,433.25885,196.65149,433.25885C196.59108,433.25885,196.52823,433.25812,196.46284,433.25665C196.41714,433.25558,196.37167,433.25507,196.32642,433.25507C195.73488,433.25507,195.18024,433.3463,194.63849,433.54077C193.92072,433.79498,193.39734,433.83984,191.69263,433.8548C190.30194,433.8548,189.46452,433.9146,189.13554,434.0492C188.95346,434.13113,188.78246,434.16873,188.64279,434.16873C188.55305,434.16873,188.47626,434.1532,188.41777,434.12396C188.34741,434.07706,188.18306,434.0547,187.97173,434.0547C187.7788,434.0547,187.54669,434.07333,187.3112,434.109C186.8956,434.16095,186.1529,434.20163,185.5533,434.20163C185.46254,434.20163,185.37505,434.20068,185.29247,434.19873C184.30553,434.16882,184.06627,434.109,183.63261,433.78003C183.30042,433.52377,182.84773,433.388,182.40074,433.388C182.1435,433.388,181.88814,433.43295,181.65872,433.52582C181.59291,433.55325,181.49693,433.5666,181.38258,433.5666C181.18513,433.5666,180.93294,433.5268,180.68674,433.45105C180.3129,433.33142,179.66989,433.2417,179.26614,433.2417C178.84744,433.2417,178.12967,433.10712,177.65115,432.94263C177.18759,432.77814,176.70906,432.64355,176.60439,432.64355C176.48476,432.64355,176.18568,432.53888,175.91652,432.4043C175.64735,432.2697,174.94453,432.1501,174.22676,432.12018C173.50899,432.09027,172.97066,432.00055,172.94075,431.91083C172.91084,431.8211,172.7314,431.74634,172.537,431.74634C172.35756,431.74634,172.16316,431.64166,172.10335,431.52203C172.05849,431.38745,171.83418,431.29773,171.59492,431.29773C171.35567,431.29773,171.07155,431.19305,170.96687,431.07343C170.8622,430.9538,170.59303,430.84912,170.36871,430.84912C170.14441,430.84912,169.78552,430.71454,169.57617,430.55005C169.36682,430.38556,169.11261,430.25098,168.99298,430.25098C168.8883,430.25098,168.57428,430.1164,168.30511,429.9519C168.03595,429.7874,167.69202,429.65283,167.52753,429.65283C167.36304,429.65283,167.22845,429.60797,167.22845,429.5332C167.22845,429.41357,166.28638,428.9201,165.28448,428.51636C164.91064,428.36682,164.5069,428.17242,164.38727,428.0827C164.01341,427.78363,163.16106,427.4098,162.86198,427.4098C162.71245,427.4098,162.3087,427.14063,161.97972,426.81165C161.65074,426.48267,161.247,426.2135,161.09746,426.2135C160.96288,426.2135,160.75352,426.10883,160.64885,425.9892C160.54417,425.86957,160.37968,425.7649,160.27501,425.7649C160.18529,425.7649,160.0208,425.6004,159.93108,425.39105C159.81711,425.14557,159.5952,425.0183,159.3437,425.0183C159.16623,425.0183,158.97401,425.0817,158.7946,425.2116C158.67873,425.3043,158.48206,425.36108,158.30894,425.36108C158.25864,425.36108,158.21031,425.3563,158.16655,425.3462C157.88243,425.30133,157.80766,425.1817,157.80766,424.85272C157.80766,424.49384,157.74785,424.41907,157.4338,424.41907C157.1796,424.41907,157.05997,424.5088,157.05997,424.67328C157.05997,424.77448,157.05298,424.82675,157.01537,424.82675C156.97517,424.82675,156.89996,424.767,156.7609,424.64337C156.5964,424.49384,156.46182,424.20972,156.46182,424.01532C156.46182,423.80597,156.28238,423.44708,156.05807,423.20782C155.79047,422.9235,155.48077,422.77478,155.25975,422.77478C155.08557,422.77478,154.96646,422.86716,154.96646,423.0583C154.96646,423.2719,154.6918,423.45502,154.48036,423.45502C154.39578,423.45502,154.32132,423.42572,154.2786,423.35736C154.23373,423.2826,154.03934,423.22278,153.82999,423.22278C153.63559,423.22278,153.4711,423.16296,153.4711,423.0882C153.4711,422.9237,152.27481,422.32556,151.96078,422.32556C151.84116,422.32556,151.66171,422.19098,151.55704,422.0265C151.45236,421.862,151.25797,421.72742,151.10841,421.72742C150.95888,421.72742,150.68971,421.56293,150.51027,421.35358C150.30458,421.11362,150.11362,420.99643,149.88391,420.99643C149.71283,420.99643,149.52025,421.06143,149.28407,421.1891C149.16232,421.2579,149.07431,421.2986,148.98288,421.2986C148.81601,421.2986,148.63776,421.16302,148.22237,420.81525C147.83357,420.50122,147.44478,420.23206,147.35506,420.23206C147.1457,420.23206,145.96437,419.61896,145.72511,419.3797C145.62044,419.27502,145.441,419.1853,145.33632,419.1853C145.12697,419.1853,144.14001,418.69183,143.82599,418.43762C143.72813,418.35376,143.59981,418.31635,143.46767,418.31635C143.17574,418.31635,142.86528,418.49896,142.8241,418.7666C142.79199,419.0154,142.67374,419.14792,142.57104,419.14792C142.48242,419.14792,142.4054,419.0492,142.4054,418.84137C142.4054,418.0937,142.27081,417.989,141.41846,417.989C140.71564,417.989,140.61096,418.01892,140.61096,418.2881C140.61096,418.46753,140.71564,418.58716,140.88013,418.6021C141.04462,418.61707,141.01471,418.64697,140.77545,418.72174C140.08759,418.90118,139.93805,419.78345,140.58105,419.78345C140.74554,419.78345,140.9549,419.87317,141.04462,419.9928C141.19415,420.17224,141.16425,420.2171,140.88013,420.26196C140.09885,420.36514,140.65448,421.8779,141.45831,421.8779C141.4699,421.8779,141.48154,421.8776,141.49323,421.87695C141.67303,421.86337,141.8159,421.8552,141.92847,421.8552C142.312,421.8552,142.34357,421.95023,142.28577,422.2508C142.22595,422.57977,142.27081,422.62463,142.70447,422.62463C142.95868,422.62463,143.36243,422.74426,143.57178,422.90875C143.79608,423.0583,144.12506,423.23773,144.31946,423.2826C144.6933,423.40222,145.39613,424.04523,145.39613,424.2845C145.39613,424.35925,145.60548,424.46393,145.84474,424.5088C146.12886,424.5686,146.29335,424.7032,146.29335,424.86768C146.29335,425.13684,146.65224,425.51068,147.08589,425.66022C147.23543,425.72003,147.3401,425.91443,147.3401,426.13873C147.3401,426.35257,147.3352,426.4441,147.25267,426.4441C147.1909,426.4441,147.08566,426.39282,146.90645,426.30322C146.66719,426.16864,146.44289,425.9593,146.38307,425.8247C146.33304,425.6913,146.12599,425.6323,145.87097,425.6323C145.43991,425.6323,144.87181,425.8009,144.6933,426.06396C144.55632,426.25735,144.28473,426.35522,143.96512,426.35522C143.69159,426.35522,143.38289,426.28354,143.09326,426.13873C142.80914,425.9892,142.39044,425.91443,142.02782,425.91443C141.66519,425.91443,141.35864,425.9892,141.29883,426.13873C141.25037,426.26474,141.15163,426.32162,140.83566,426.32162C140.66417,426.32162,140.4287,426.30487,140.10254,426.27332C139.81923,426.2489,139.59177,426.23563,139.40086,426.23563C139.00734,426.23563,138.76918,426.29196,138.51746,426.42285C138.2966,426.52948,138.16495,426.5818,138.05338,426.5818C137.94586,426.5818,137.857,426.5332,137.7249,426.4378C137.54546,426.31818,137.3062,426.2135,137.20152,426.2135C136.93236,426.2135,135.96037,425.74994,135.69121,425.49573C135.58185,425.40002,135.285,425.32935,134.94923,425.32935C134.91772,425.32935,134.88588,425.32996,134.8538,425.33124C134.79121,425.33554,134.73174,425.33768,134.67523,425.33768C134.34032,425.33768,134.11012,425.26263,133.95659,425.1219C133.74937,424.91467,133.40921,424.8315,132.554,424.8315C132.29836,424.8315,131.99667,424.83896,131.63876,424.85272C130.38266,424.89758,130.1434,424.97235,130.1434,425.31628C130.1434,425.64526,130.3378,425.70508,131.80325,425.83966C132.59581,425.91443,132.87993,426.00415,133.1491,426.30322C133.34349,426.51257,133.65752,426.6621,133.88182,426.6621C134.1809,426.6621,134.37529,426.81165,134.64445,427.2154C134.95848,427.70886,135.12297,427.79858,135.82579,427.94812C136.76787,428.12756,137.56041,428.42664,137.12675,428.4416C136.93236,428.45654,136.87254,428.54626,136.90245,428.78552C136.94731,429.0846,137.06694,429.1444,137.9193,429.26404C138.4726,429.3388,138.93616,429.4734,139.01093,429.59302C139.0857,429.7276,139.39972,429.80237,139.84833,429.80237C140.35675,429.80237,140.67078,429.8921,140.91003,430.10144C141.10443,430.26593,141.46332,430.4005,141.73248,430.4005C142.28577,430.4005,142.64465,430.74445,142.58484,431.22296C142.53998,431.52203,142.6297,431.5669,143.31757,431.65662C143.5711,431.69284,143.81369,431.71262,143.97557,431.71262C144.08102,431.71262,144.15222,431.70422,144.16992,431.68652C144.17686,431.67957,144.18524,431.6762,144.19484,431.6762C144.2472,431.6762,144.33566,431.77643,144.42413,431.94073C144.59201,432.2645,144.56757,432.56903,144.42021,432.56903C144.38382,432.56903,144.3399,432.55045,144.28955,432.50897C144.0802,432.32953,142.64465,431.92578,141.58295,431.73138C141.1792,431.65662,140.65582,431.537,140.44647,431.4323C140.26898,431.36133,139.99786,431.31842,139.7813,431.31842C139.72417,431.31842,139.67084,431.32138,139.62402,431.32764C139.28009,431.35754,139.17542,431.46222,139.14551,431.7912C139.11577,432.0192,139.08603,432.11575,139.02145,432.11575C138.9886,432.11575,138.94675,432.0908,138.8913,432.0454C138.79286,431.9716,138.56279,431.918,138.33438,431.918C138.28523,431.918,138.23615,431.92047,138.18846,431.92578C137.81462,431.9557,137.68004,432.0454,137.65013,432.29962C137.59032,432.74823,138.68195,433.83984,139.19037,433.83984C139.45953,433.83984,139.65393,433.97443,139.83337,434.28845C139.98291,434.55762,140.20721,434.7371,140.40161,434.7371C140.58105,434.7371,141.02966,434.90158,141.41846,435.11093C141.8222,435.33524,142.37549,435.48477,142.71942,435.48477C143.03345,435.48477,143.30261,435.5446,143.30261,435.6343C143.30261,435.70908,143.54187,435.88852,143.84094,436.0231C144.14001,436.15768,144.45404,436.39694,144.54376,436.56143C144.64844,436.71097,144.8279,436.8306,144.96248,436.8306C145.09706,436.8306,145.2466,436.93527,145.30641,437.0549C145.3573,437.1991,145.64395,437.28073,145.9098,437.28073C146.11266,437.28073,146.3034,437.23322,146.36812,437.12967C146.37947,437.11124,146.4028,437.10275,146.43575,437.10275C146.74998,437.10275,147.93825,437.8744,147.93825,438.13156C147.93825,438.2417,147.93507,438.30112,147.80917,438.30112C147.66154,438.30112,147.34514,438.2194,146.66719,438.04184C146.33821,437.95212,145.65034,437.87735,145.14192,437.87735C144.22974,437.87735,144.19983,437.8923,144.19983,438.26614C144.19983,438.55026,144.31946,438.68484,144.75311,438.8643C144.99321,438.97232,145.30077,439.0418,145.5133,439.0418C145.56552,439.0418,145.612,439.03763,145.65034,439.02878C145.69058,439.02167,145.72896,439.01794,145.76593,439.01794C145.9625,439.01794,146.1195,439.12335,146.3083,439.38766C146.5027,439.65683,146.74196,439.82132,146.96626,439.82132C147.16066,439.82132,147.38496,439.91104,147.44478,440.03067C147.5046,440.13535,147.84853,440.3746,148.19246,440.55405C148.55135,440.7335,149.10463,441.16714,149.44856,441.541C149.85231,441.97464,150.2411,442.2438,150.57008,442.30362C150.83925,442.34848,151.13832,442.48306,151.24301,442.6027C151.33273,442.72232,151.49722,442.81204,151.6019,442.81204C151.70657,442.81204,151.87106,442.91672,151.97574,443.03635C152.08041,443.15598,152.31967,443.26065,152.51407,443.26065C152.70847,443.26065,152.93277,443.38028,153.00754,443.54477C153.09726,443.6943,153.32156,443.8588,153.501,443.90366C153.6954,443.96347,153.93466,444.12796,154.03934,444.30743C154.20383,444.5766,154.18887,444.6065,153.90475,444.6065C153.03745,444.6065,152.78323,445.20465,153.35147,445.95233C153.56612,446.24747,153.91983,446.4142,154.20148,446.4142C154.39075,446.4142,154.54747,446.3389,154.60757,446.17664C154.6607,446.03494,154.73949,445.96317,154.85034,445.96317C155.02026,445.96317,155.26558,446.1318,155.60947,446.4757C156.05807,446.92432,156.08798,446.99908,155.83377,446.99908C155.62442,446.99908,155.54965,447.0888,155.59451,447.32806C155.62442,447.61218,155.74405,447.68695,156.26743,447.71686C156.7609,447.74677,156.9852,447.8664,157.34409,448.2851C157.5983,448.5692,157.80766,448.85333,157.80766,448.91315C157.80766,448.97296,157.55344,449.01782,157.23941,449.01782C156.83566,449.01782,156.55154,448.8982,156.23752,448.59912C155.99826,448.37482,155.74405,448.19537,155.68423,448.19537C155.60947,448.19537,155.5646,448.13556,155.5646,448.0608C155.5646,447.98602,155.37021,447.71686,155.116,447.4477C154.82487,447.13126,154.6409,447.0184,154.35548,447.0184C154.3037,447.0184,154.24858,447.0221,154.18887,447.029C153.77017,447.0589,153.68045,447.14862,153.65054,447.4776C153.62064,447.77667,153.51596,447.8963,153.30661,447.8963C153.15707,447.8963,153.02249,447.95612,153.02249,448.03088C153.02249,448.1787,152.85056,448.26587,152.68314,448.26587C152.56265,448.26587,152.4445,448.22073,152.39444,448.1206C152.3122,447.97855,152.15518,447.90753,151.98883,447.90753C151.82246,447.90753,151.64676,447.97855,151.52713,448.1206C151.42245,448.24023,151.2131,448.3449,151.06355,448.3449C150.89906,448.3449,150.77943,448.40472,150.77943,448.4795C150.77943,448.55426,150.54018,448.65894,150.2411,448.7038C149.80745,448.79352,149.71773,448.8683,149.76259,449.13745C149.80081,449.39734,150.02269,449.5283,150.42224,449.5283C150.80429,449.5283,151.34879,449.40857,152.0505,449.16736C152.15833,449.1314,152.22296,449.11227,152.24632,449.11185L152.24785,449.11185C152.27953,449.1125,152.22166,449.15384,152.08041,449.24213C151.76639,449.45148,151.73648,449.9898,152.0505,449.9898C152.18509,449.9898,152.33463,450.13934,152.4094,450.33374C152.55893,450.72253,153.41129,451.4403,154.74216,452.32257C155.40012,452.75623,155.5646,452.92072,155.35526,452.95062C155.34131,452.9534,155.32619,452.95477,155.31007,452.95477C155.15349,452.95477,154.90347,452.82642,154.7272,452.6366C154.54776,452.4422,154.14401,452.2179,153.82999,452.15808C153.51596,452.11322,153.12717,451.96368,152.96268,451.84406C152.75125,451.6987,152.46098,451.62924,152.18866,451.62924C151.84464,451.62924,151.52922,451.74008,151.43741,451.94873L151.30283,452.2478L150.89906,451.94873C150.68971,451.7693,150.4056,451.6347,150.28596,451.6347C150.16634,451.6347,149.9869,451.53003,149.88222,451.4104C149.74754,451.24686,149.59122,451.17307,149.44109,451.17307C149.12448,451.17307,148.83546,451.50134,148.83546,452.00854C148.83546,452.35248,148.94014,452.53192,149.19435,452.6665C149.38875,452.77118,149.70277,453.0553,149.86726,453.29456C150.09157,453.59363,150.31587,453.7282,150.61494,453.7282C150.8542,453.7282,151.12337,453.81793,151.2131,453.93756C151.31778,454.0572,151.58694,454.20673,151.8262,454.2516C152.06546,454.29645,152.33463,454.44598,152.4393,454.5656C152.52902,454.68524,152.75333,454.77496,152.93277,454.77496C153.15707,454.77496,153.32156,454.93945,153.501,455.38806C153.6954,455.85162,153.8898,456.04602,154.33841,456.22546C154.87674,456.4348,154.9216,456.49463,154.90665,456.9881C154.8917,457.52643,154.90665,457.54138,155.69919,457.79562C156.1478,457.94516,156.68613,458.21432,156.89548,458.40872C157.10483,458.60312,157.44876,458.85733,157.65813,458.9919C157.89738,459.14145,158.01701,459.3508,158.03197,459.64987C158.03197,460.0237,158.09178,460.09848,158.55534,460.1583C158.83946,460.20316,159.42265,460.4125,159.8264,460.6069L160.57408,460.98074L159.90117,461.0256C159.52733,461.0555,159.15349,461.1602,159.07872,461.26486C158.989,461.36954,158.66002,461.50412,158.33104,461.56393C156.74594,461.8331,156.7609,461.81815,156.7609,462.17703C156.7609,462.4462,156.86557,462.53592,157.31418,462.6107C157.62822,462.65555,158.13664,462.7004,158.43571,462.7004C158.73479,462.7004,159.03386,462.76022,159.07872,462.84995C159.13843,462.9428,159.24817,462.98862,159.3962,462.98862C159.58183,462.98862,159.82765,462.9166,160.11052,462.77518C160.3171,462.66895,160.49104,462.61627,160.62596,462.61627C160.83287,462.61627,160.94792,462.74014,160.94792,462.98453C160.94792,463.35837,160.69371,463.43314,158.92918,463.61258C157.35904,463.76212,155.9235,464.03128,155.60947,464.24063C155.50479,464.3154,155.41507,464.52475,155.41507,464.7042C155.41507,465.10794,155.84872,465.24252,157.05997,465.24252C157.50858,465.24252,157.83757,465.33224,157.9572,465.46683C158.07683,465.61636,158.4245,465.69113,158.77405,465.69113C159.12358,465.69113,159.47499,465.61636,159.6021,465.46683C159.68071,465.37076,159.75421,465.32568,159.84052,465.32568C159.90195,465.32568,159.96986,465.34854,160.0507,465.39206C160.20024,465.48178,160.4694,465.5416,160.6339,465.5416C160.8881,465.5416,160.94792,465.63132,160.94792,466.06497L160.94792,466.58835L161.84514,466.58835C162.5031,466.58835,162.93675,466.69302,163.46013,466.94724C163.99846,467.23135,164.41718,467.32108,165.26953,467.32108C166.51068,467.35098,166.72003,467.4108,166.46582,467.72482C166.3761,467.84445,166.33124,468.09866,166.36115,468.308C166.42096,468.56223,166.3761,468.68185,166.24152,468.68185C166.12189,468.68185,166.03217,468.74167,166.03217,468.80148C166.03217,468.84528,165.80779,468.87302,165.48808,468.87302C165.37106,468.87302,165.24127,468.86932,165.10504,468.8613C164.5069,468.81644,163.98186,468.79483,163.53435,468.79483C162.63934,468.79483,162.05449,468.88123,161.81523,469.04074C161.60852,469.18744,161.45831,469.26276,161.33807,469.26276C161.18866,469.26276,161.08554,469.14645,160.97783,468.90616C160.86298,468.65225,160.66502,468.53766,160.46994,468.53766C160.18245,468.53766,159.90117,468.78653,159.90117,469.20523C159.90117,469.68375,160.31987,469.96786,161.15727,470.0875C161.57597,470.13235,161.94981,470.26694,162.02458,470.3716C162.12035,470.52325,162.03297,470.60248,161.84428,470.60248C161.67941,470.60248,161.4372,470.542,161.17223,470.41647C160.8576,470.263,160.63356,470.1883,160.45966,470.1883C160.2947,470.1883,160.17485,470.25552,160.06566,470.38657C159.96098,470.5062,159.66191,470.64078,159.37779,470.68564C158.95909,470.77536,158.85442,470.86508,158.85442,471.13425C158.85442,471.49316,159.10863,471.6726,159.6021,471.6726C159.73668,471.6726,159.94603,471.77728,160.0507,471.8969C160.17047,472.04233,160.50067,472.11926,160.80334,472.11926C161.02974,472.11926,161.24074,472.07623,161.33672,471.98663C161.44537,471.87073,161.9575,471.81448,162.54854,471.81448C163.17764,471.81448,163.89613,471.87823,164.3125,472.0016C164.9555,472.19598,165.01532,472.24084,164.7312,472.33057C164.5368,472.39038,164.38727,472.56982,164.38727,472.71936C164.38727,473.00348,164.52185,473.04834,165.83777,473.24274C166.16675,473.30255,166.5705,473.43713,166.73499,473.5418C166.88452,473.66144,167.25836,473.7661,167.55743,473.7661C168.30511,473.7661,168.57428,473.9007,168.57428,474.22968C168.57428,474.46893,168.69391,474.5138,169.307,474.5138C170.0846,474.5138,170.71266,474.25958,171.02669,473.82593C171.12537,473.6969,171.18166,473.63336,171.2425,473.63336C171.30153,473.63336,171.36484,473.69315,171.4753,473.81097C171.64192,473.96884,172.02972,474.0598,172.35211,474.0598C172.57944,474.0598,172.77423,474.0146,172.83607,473.91565C172.88094,473.82593,173.22487,473.7661,173.5688,473.7661C174.1819,473.7661,174.2118,473.78107,174.13704,474.13995C174.07722,474.46893,174.13704,474.52875,174.5707,474.61847C175.06416,474.7381,175.06416,474.7381,174.33144,474.81287C174.14406,474.83368,173.94057,474.84485,173.75984,474.84485C173.55116,474.84485,173.37283,474.82996,173.28468,474.7979C173.1202,474.7381,172.56691,474.64838,172.05849,474.58856C171.75824,474.5541,171.55359,474.53262,171.40878,474.53262C171.11366,474.53262,171.06718,474.6219,170.96687,474.87268C170.87408,475.12576,170.78128,475.24557,170.65897,475.24557C170.56444,475.24557,170.4523,475.17404,170.3089,475.03717C170.16292,474.88388,169.821,474.809,169.49529,474.809C169.15369,474.809,168.82991,474.8914,168.76868,475.05212C168.6341,475.42596,169.02289,475.9643,169.53131,476.08392C169.78552,476.14374,170.36871,476.20355,170.81734,476.20355C171.63979,476.2185,171.65474,476.2185,171.59492,476.6372C171.53511,477.01105,171.57997,477.0559,171.95381,477.0559C173.00056,477.0559,174.85481,477.39984,174.85481,477.6092C174.85481,477.71387,174.76509,477.8036,174.66042,477.8036C174.54079,477.8036,174.33144,477.93817,174.1819,478.10266C174.03236,478.26715,173.7931,478.40173,173.62862,478.40173C173.46413,478.40173,173.35945,478.5064,173.35945,478.7008C173.35945,478.95502,173.46413,478.99988,174.152,478.99988C174.795,478.99988,174.97444,478.94006,175.19875,478.641C175.4125,478.37378,175.54272,478.3095,176.1546,478.3095C176.22758,478.3095,176.3074,478.31042,176.39503,478.312C177.18759,478.34192,177.32217,478.38678,177.36703,478.62604C177.39694,478.79053,177.53152,479.01483,177.6661,479.10455C177.82031,479.2279,178.2051,479.29166,178.56218,479.29166C178.89764,479.29166,179.20866,479.2354,179.2811,479.1195C179.30602,479.08463,179.33095,479.06635,179.35641,479.06635C179.40738,479.06635,179.46054,479.13943,179.52036,479.29895C179.59886,479.50082,179.66896,479.57654,179.85051,479.57654C179.91101,479.57654,179.98392,479.5681,180.07364,479.55316C180.15096,479.53842,180.22374,479.53094,180.29333,479.53094C180.5064,479.53094,180.68951,479.601,180.88113,479.74756C181.16525,479.97186,181.50919,480.04663,182.212,480.06158C182.72043,480.06158,183.45317,480.1214,183.81206,480.16626C184.4102,480.25598,184.45506,480.2859,184.2158,480.4803C184.06627,480.5999,183.7672,480.7046,183.55785,480.71954C183.33354,480.7345,182.73538,480.74945,182.22696,480.7644C181.3447,480.7943,181.28488,480.82422,181.28488,481.1532C181.28488,481.48218,181.35965,481.5121,182.48117,481.6018C182.80222,481.62955,183.11696,481.64258,183.40898,481.64258C184.21867,481.64258,184.85359,481.54236,184.96349,481.3775C184.96916,481.36615,184.98402,481.36072,185.00644,481.36072C185.10191,481.36072,185.33434,481.4593,185.57658,481.61676C185.92462,481.8549,186.30632,481.98083,186.61172,481.98083C186.80495,481.98083,186.96764,481.93042,187.07195,481.8261C187.16333,481.7347,187.71724,481.6957,188.81367,481.6957C189.1525,481.6957,189.54312,481.69943,189.98792,481.70648C192.20105,481.75134,192.78424,481.81116,193.06836,482.00555C193.39734,482.2448,193.39734,482.25977,193.09827,482.33453C192.76929,482.42426,192.67957,482.9626,192.99359,483.0822C193.08331,483.11212,192.99359,483.20184,192.76929,483.26166C192.45526,483.33643,192.35059,483.45605,192.35059,483.74017C192.35059,484.36823,192.08142,484.68225,191.55804,484.68225C191.28888,484.68225,190.94495,484.77197,190.78046,484.89163C190.61597,484.9963,190.09259,485.11594,189.62901,485.1608C189.12059,485.20566,188.65703,485.3253,188.49254,485.47482C188.343,485.6094,188.04393,485.72903,187.84953,485.72903C187.20653,485.72903,186.93736,486.04306,186.99718,486.70102C187.04204,487.20944,187.10185,487.31412,187.41588,487.34402C187.62523,487.37393,187.8944,487.49356,188.02898,487.6132C188.13281,487.7061,188.44633,487.74707,188.81483,487.74707C189.45468,487.74707,190.26025,487.62354,190.42157,487.43375C190.51129,487.31412,190.79541,487.2244,191.03467,487.2244C191.27393,487.2244,191.61786,487.14963,191.7973,487.04495C191.97675,486.95523,192.6048,486.85056,193.18799,486.82065L194.26465,486.74588L194.18988,487.13467C194.13007,487.4487,194.17493,487.52347,194.5039,487.6132C194.6391,487.64215,194.86159,487.65866,195.07875,487.65866C195.19789,487.65866,195.31543,487.6537,195.41608,487.6431C195.5058,487.6319,195.58337,487.62628,195.64926,487.62628C195.84692,487.62628,195.93945,487.67676,195.93945,487.77768C195.93945,487.88583,196.40323,487.93332,197.0115,487.93332C198.00104,487.93332,199.37294,487.80768,199.75264,487.6132C199.96564,487.50668,200.17336,487.45813,200.5196,487.45813C200.75677,487.45813,201.05894,487.48093,201.4723,487.52347C201.91109,487.57224,202.2083,487.59863,202.42165,487.59863C202.7318,487.59863,202.8647,487.54282,202.99759,487.4188C203.15227,487.27997,203.4279,487.22006,203.75142,487.22006C204.64769,487.22006,205.91139,487.67996,205.98831,488.19638C206.01765,488.4214,206.29018,488.56317,206.54633,488.56317C206.68173,488.56317,206.81258,488.52356,206.90048,488.43564C207.0071,488.329,207.1874,488.2767,207.33868,488.2767C207.48447,488.2767,207.6033,488.3253,207.6033,488.4207C207.6033,488.52423,207.73494,488.57175,207.89276,488.57175C208.0996,488.57175,208.35143,488.4901,208.4108,488.34592C208.45566,488.21133,208.67996,488.1216,208.97903,488.1216C209.24821,488.1216,209.56224,488.0618,209.66692,488.00198C209.77309,487.9312,209.90936,487.8997,210.0498,487.8997C210.38406,487.8997,210.7419,488.07825,210.77348,488.33096C210.81834,488.60013,210.92302,488.645,211.68565,488.68985C211.79251,488.69595,211.89127,488.69894,211.98077,488.69894C212.32965,488.69894,212.53801,488.65353,212.53801,488.57022C212.53801,488.49545,212.7324,488.4207,212.97166,488.4207C213.40532,488.4207,213.83897,488.00198,214.07823,487.31412C214.13571,487.18765,214.21973,487.11423,214.32346,487.11423C214.35464,487.11423,214.3876,487.12085,214.42216,487.13467C214.55675,487.17953,214.75114,487.2244,214.85582,487.2244C214.97545,487.2244,215.02031,487.32907,214.97545,487.52347C214.84657,488.00458,215.17677,488.26358,215.69661,488.26358C216.08156,488.26358,216.5705,488.12155,217.05402,487.82254C217.44281,487.56833,217.86151,487.37393,217.96619,487.37393C218.07086,487.37393,218.23535,487.29916,218.32507,487.20944C218.38702,487.1475,218.47748,487.11407,218.55215,487.11407C218.58563,487.11407,218.61595,487.1208,218.6391,487.13467C218.84845,487.26926,218.07086,488.1216,217.72693,488.1216C217.59235,488.1216,217.42786,488.2263,217.36804,488.36087C217.32318,488.4805,217.12878,488.65994,216.93439,488.7347C216.5456,488.8693,216.42596,489.5123,216.73999,489.7067C216.93439,489.82632,215.79791,490.94785,215.22966,491.20206C214.796,491.39645,214.40721,492.03946,214.52684,492.3535C214.5717,492.4731,214.81096,492.62265,215.06517,492.68246C215.4091,492.75723,215.52875,492.87686,215.55865,493.17593C215.58734,493.47238,215.75668,493.63428,215.9689,493.63428C216.08855,493.63428,216.22182,493.58282,216.3512,493.475C217.00916,492.93668,217.47272,492.45816,217.47272,492.32358C217.47272,492.23386,218.05591,491.59085,218.77368,490.88803C219.64099,490.03568,220.17932,489.61697,220.40363,489.61697C220.59802,489.61697,220.82233,489.49734,220.8971,489.33286C220.976,489.1863,221.08888,489.11624,221.25497,489.11624C221.30923,489.11624,221.36916,489.12372,221.43542,489.13846C221.50165,489.14838,221.55833,489.15393,221.60727,489.15393C221.77939,489.15393,221.85573,489.08548,221.91396,488.8992C221.94386,488.7347,222.0934,488.55527,222.22798,488.5104C222.37752,488.46555,222.58687,488.36087,222.7065,488.2861C222.82613,488.21133,223.19997,488.0319,223.52895,487.88235C223.85793,487.74777,224.157,487.58328,224.20186,487.53842C224.24672,487.49356,224.42616,487.32907,224.6056,487.17953C224.75919,487.05154,224.85435,486.99173,224.95499,486.99173C225.03072,486.99173,225.10954,487.0256,225.2187,487.0898C225.31839,487.15073,225.4037,487.185,225.50809,487.185C225.68558,487.185,225.91817,487.08594,226.37013,486.85056C226.8337,486.62625,227.41689,486.23746,227.65614,485.98325C227.93698,485.7132,228.07738,485.6148,228.30843,485.6148C228.39723,485.6148,228.49944,485.62936,228.62814,485.65427C228.74844,485.67276,228.85298,485.68268,228.94533,485.68268C229.15144,485.68268,229.29677,485.63327,229.42068,485.51968C229.55527,485.3851,230.03378,484.9664,230.46744,484.57758C230.91605,484.17383,231.40952,483.75513,231.5441,483.6056C231.67868,483.471,231.91794,483.32147,232.08243,483.2766C232.23196,483.23175,232.5759,482.9925,232.84506,482.73828C233.11423,482.49902,233.39835,482.28967,233.45816,482.28967C233.56284,482.28967,233.90677,482.03546,234.43015,481.5719C234.49582,481.5281,234.64966,481.50037,234.82124,481.50037C234.88405,481.50037,234.94923,481.50406,235.01334,481.5121C235.12462,481.52798,235.20738,481.5386,235.2678,481.5386C235.43471,481.5386,235.43109,481.45758,235.38718,481.1831C235.32736,480.9289,235.37222,480.7943,235.5068,480.7943C235.61148,480.7943,235.79092,480.74945,235.9255,480.7046C235.96786,480.69046,236.00356,480.683,236.03337,480.683C236.12985,480.683,236.16476,480.76108,236.16476,480.94385C236.16476,481.15598,236.19485,481.2327,236.38843,481.2327C236.46777,481.2327,236.57458,481.2198,236.71805,481.19806C237.01712,481.13824,237.33115,481.00366,237.39096,480.86908C237.46573,480.74945,237.61526,480.64478,237.7349,480.64478C237.83957,480.64478,237.97418,480.55505,238.00409,480.45038C238.01797,480.4226,238.03186,480.40915,238.04442,480.40915C238.07243,480.40915,238.09381,480.476,238.09381,480.5999C238.10876,480.7943,238.01904,480.94385,237.91434,480.94385C237.67508,480.94385,236.16476,482.3794,236.16476,482.58875C236.16476,482.67847,236.03018,482.73828,235.88065,482.73828C235.73111,482.73828,235.56662,482.84296,235.5068,482.9626C235.46194,483.0822,235.32736,483.1869,235.20773,483.1869C235.10306,483.1869,234.96848,483.29156,234.90866,483.4112C234.8638,483.53082,234.69931,483.6355,234.54977,483.6355C234.38528,483.6355,234.10117,483.8598,233.90677,484.14392C233.71237,484.42804,233.4432,484.6972,233.29367,484.7271C232.88992,484.83182,232.93478,486.4767,233.33853,486.5814C233.48807,486.62625,233.62265,486.79074,233.62265,486.94028C233.62265,487.20944,233.74883,487.34402,234.0327,487.34402C234.12733,487.34402,234.23949,487.32907,234.37033,487.29916C234.8937,487.17953,235.98532,486.13278,236.10495,485.6393C236.16476,485.40005,236.34421,485.25052,236.59842,485.1907C237.30124,485.04117,237.36105,484.9963,237.36105,484.62244C237.36105,484.38318,237.46573,484.2486,237.67508,484.18878C237.83957,484.14392,238.01904,483.97943,238.0639,483.81494C238.09789,483.6564,238.17474,483.58362,238.32697,483.58362C238.37575,483.58362,238.43225,483.59106,238.49756,483.6056C238.5633,483.61874,238.61748,483.6261,238.662,483.6261C238.82004,483.6261,238.85645,483.5333,238.85645,483.2766C238.85645,483.06726,238.94617,482.88782,239.05084,482.88782C239.14056,482.88782,239.45459,482.5738,239.73871,482.2149C240.08264,481.75134,240.3518,481.542,240.59106,481.542C240.78546,481.542,240.94995,481.46722,240.94995,481.39246C240.94995,481.30273,241.02472,481.24292,241.09949,481.24292C241.18921,481.24292,241.5481,480.94385,241.92194,480.58496C242.28082,480.22607,242.72943,479.8672,242.92383,479.82233C243.11823,479.7625,243.50702,479.46344,243.80609,479.16437C244.2846,478.68585,245.37622,477.68396,246.1239,477.0559C247.11871,476.21817,247.48334,475.96478,247.78947,475.96478C247.83305,475.96478,247.87546,475.96994,247.91833,475.97925C247.97124,475.9886,248.01895,475.99338,248.06204,475.99338C248.22597,475.99338,248.3227,475.92383,248.3819,475.7699C248.47162,475.50073,249.27911,474.66333,249.42865,474.66333C249.45856,474.66333,249.8623,474.42407,250.31091,474.125C250.74059,473.84143,251.04187,473.70105,251.22043,473.70105C251.35258,473.70105,251.41751,473.77795,251.41751,473.9306C251.41751,474.1549,250.4754,475.26147,250.281,475.26147C250.19128,475.26147,250.0268,475.36615,249.92212,475.48578C249.81744,475.6054,249.50342,475.71008,249.23425,475.71008C248.81555,475.71008,248.69592,475.78485,248.5763,476.09888C248.32208,476.74188,248.3819,477.20544,248.71088,477.20544C248.87537,477.20544,249.05481,477.26526,249.09967,477.35498C249.15944,477.4546,249.3283,477.5011,249.49757,477.5011C249.70952,477.5011,249.92212,477.4282,249.92212,477.29517C249.92212,477.1905,250.0567,477.0559,250.22119,477.01105C250.38568,476.9662,250.52026,476.81665,250.52026,476.68207C250.52026,476.53253,250.6399,476.32318,250.78943,476.2185C250.98,476.07404,251.09665,476.01108,251.1525,476.01013L251.15501,476.01013C251.36292,476.01376,250.67258,476.93222,249.8324,477.65405C249.39874,478.0279,249.03986,478.38678,249.0249,478.4765C249.0249,478.55127,248.78564,478.8653,248.48657,479.1494C248.05292,479.58307,247.97815,479.7625,248.00806,480.19617C248.04185,480.58493,248.21896,480.7874,248.46378,480.7874C248.65211,480.7874,248.88054,480.66754,249.11462,480.42047C249.30902,480.21112,249.47351,479.97186,249.47351,479.91205C249.47351,479.85223,249.6081,479.6728,249.78754,479.5083C249.92104,479.38315,250.00798,479.32318,250.07693,479.32318C250.13158,479.32318,250.17493,479.3608,250.22119,479.43353C250.26498,479.52112,250.38089,479.57663,250.51025,479.57663C250.5576,479.57663,250.60677,479.56918,250.65485,479.55316C250.72787,479.53552,250.78734,479.5264,250.83324,479.5262L250.83574,479.5262C251.05907,479.52704,250.95392,479.74545,250.52026,480.24103C250.281,480.52515,250.07166,480.899,250.07166,481.06348C250.07166,481.22797,249.96698,481.46722,249.84735,481.6018C249.72772,481.72144,249.62305,481.9906,249.62305,482.19995C249.62305,482.4655,249.70921,482.596,249.87053,482.596C250.11798,482.596,250.54222,482.28897,251.10349,481.69153C251.56705,481.19806,252.10538,480.57,252.29977,480.30084C252.49417,480.04663,252.91287,479.7027,253.24185,479.55316C253.55588,479.38867,253.91476,479.16437,254.04935,479.04474C254.14487,478.94186,254.2079,478.88956,254.27568,478.88956C254.34586,478.88956,254.42113,478.94562,254.54282,479.0597C254.70891,479.21194,254.93585,479.28732,255.16881,479.28732C255.43921,479.28732,255.71771,479.18576,255.91855,478.98492C256.05713,478.84634,256.2488,478.7502,256.3773,478.7502C256.4013,478.7502,256.4231,478.75357,256.44193,478.76062C256.741,478.88025,256.69614,479.1494,256.3821,479.1494C256.23257,479.1494,255.9335,479.35876,255.7092,479.61298C255.53207,479.81372,255.38292,479.93988,255.32802,479.93988C255.31339,479.93988,255.30545,479.9309,255.30545,479.91205C255.30545,479.8024,255.22476,479.75116,255.1102,479.75116C254.95917,479.75116,254.74924,479.8402,254.58768,480.00177C254.33347,480.25598,254.04935,480.68964,253.8699,481.09338C253.43625,482.11023,253.30167,482.33453,253.06241,482.39435C252.8082,482.45416,252.6138,482.84296,252.6138,483.29156C252.6138,483.41324,252.7234,483.47324,252.89507,483.47324C253.08209,483.47324,253.34279,483.402,253.61569,483.26166C253.84,483.14203,254.22879,483.00745,254.4531,482.9626C254.6774,482.91772,254.91666,482.7682,254.96152,482.61865C255.0621,482.3546,255.44817,481.94254,255.5685,481.94254C255.59126,481.94254,255.60452,481.95728,255.60452,481.9906C255.60452,482.09882,255.72536,482.1466,255.87668,482.1466C256.10178,482.1466,256.3943,482.04086,256.45688,481.87097C256.5167,481.7364,256.68118,481.52704,256.83072,481.42236C256.98026,481.3177,257.09988,481.16815,257.09988,481.09338C257.09988,481.03357,257.3242,480.74945,257.59335,480.46533C258.78964,479.22418,260.01584,477.78864,260.1205,477.50452C260.18033,477.34003,260.285,477.20544,260.35977,477.20544C260.4196,477.20544,260.59903,476.98114,260.7336,476.69702C260.8682,476.4129,261.10745,476.14374,261.27194,476.08392C261.4514,476.03906,261.58597,475.85962,261.58597,475.71008C261.58597,475.39606,261.8701,475.26147,262.543,475.26147C262.9019,475.26147,263.11124,475.1568,263.3206,474.87268C263.844,474.1549,265.36926,472.71936,265.60852,472.71936C265.69824,472.71936,265.8777,472.51,265.9973,472.27075C266.3262,471.64154,268.72,469.2346,268.99405,469.2346C269.0066,469.2346,269.01468,469.23962,269.01794,469.2501C269.0628,469.3398,268.88336,469.6987,268.62915,470.01273C268.37494,470.32675,268.1656,470.71555,268.1656,470.88004C268.1656,471.04453,268.0609,471.29874,267.94128,471.46326C267.82166,471.6128,267.71698,471.867,267.71698,472.0016C267.71698,472.15112,267.59735,472.37543,267.4478,472.52496C267.01416,472.94366,266.5207,473.9007,266.5207,474.30444C266.5207,474.5736,266.59546,474.66333,266.86462,474.66333C267.28333,474.66333,268.34503,473.64648,268.46466,473.153C268.52448,472.9287,268.70392,472.76422,269.01794,472.68945C269.4516,472.56982,270.10956,471.8969,270.10956,471.55298C270.10956,471.4782,270.24414,471.26883,270.40863,471.07443C270.57312,470.88004,270.7077,470.65573,270.7077,470.566C270.72266,470.35666,271.24603,469.7286,271.41052,469.7286C271.64978,469.7286,272.65167,468.6071,272.65167,468.33792C272.65167,468.17343,272.7713,468.0837,273.0255,468.0837C273.26477,468.0837,273.39935,467.994,273.39935,467.8594C273.39935,467.73978,273.50403,467.6351,273.62366,467.6351C273.72833,467.6351,273.89282,467.54538,273.95264,467.4407C274.01245,467.32108,274.49097,466.91733,274.9994,466.52853C275.5078,466.1547,275.97137,465.7061,276.01624,465.5416C276.0611,465.39206,276.2854,465.22757,276.50974,465.16776C276.73404,465.1229,277.04807,464.88364,277.21255,464.64438C277.392,464.3752,277.6462,464.19577,277.8406,464.19577C278.035,464.19577,278.2593,464.0612,278.36398,463.8967C278.46866,463.7322,278.66306,463.59763,278.79764,463.59763C278.97708,463.59763,279.0668,463.40323,279.14157,462.84995C279.2014,462.43124,279.18643,461.98264,279.11166,461.84805C278.94397,461.56854,279.05054,461.09314,279.2483,461.09314C279.26215,461.09314,279.27643,461.0955,279.2911,461.10037C279.38083,461.13028,279.47055,461.35458,279.50046,461.59384C279.59018,462.52097,279.6799,462.7004,280.0388,462.7004C280.50235,462.7004,280.57712,462.4761,280.57712,460.93588C280.57712,460.2181,280.62198,459.26108,280.6818,458.81247L280.80142,457.99002L280.8762,458.58817C280.936,459.0966,281.01077,459.1863,281.3547,459.23117C281.41315,459.2382,281.4632,459.243,281.50665,459.243C281.74118,459.243,281.78418,459.1026,281.92294,458.40872C282.01266,457.9302,282.14725,457.42175,282.22202,457.28717C282.31174,457.13763,282.37155,456.91333,282.37155,456.77875C282.37155,456.58063,282.66687,456.225,282.95752,456.0075L282.96036,456.0075L282.99454,414.25238L282.99738,414.25238C282.43073,414.1681,281.64374,413.69897,281.0706,413.09918C280.80142,412.83002,280.38272,412.56085,280.11356,412.50104C279.85934,412.45618,279.35092,412.14215,278.99203,411.79822C278.6182,411.45428,278.24435,411.11035,278.13968,411.03558C277.70602,410.66174,276.86862,410.24298,276.39008,410.1383C276.10596,410.0785,275.62744,409.86914,275.31342,409.67474C274.9994,409.48035,274.62555,409.31586,274.49097,409.31586C274.34143,409.31586,274.13208,409.18127,274.0274,409.01678C273.92273,408.8523,273.68347,408.7177,273.48907,408.7177C273.29468,408.7177,273.05542,408.61304,272.95074,408.4934C272.84607,408.37378,272.6068,408.2691,272.42737,408.2691C272.24792,408.2691,271.91895,408.13452,271.7096,407.97003C271.50024,407.80554,271.18622,407.67096,271.00677,407.67096C270.82733,407.67096,270.49835,407.58124,270.289,407.4616C269.30206,406.93823,266.86462,406.35504,265.27954,406.26532C263.96362,406.19055,263.58975,406.11578,263.23087,405.86157C262.96707,405.6666,262.77365,405.58597,262.45496,405.58597C262.35815,405.58597,262.24976,405.5934,262.1243,405.60736C262.01212,405.62338,261.901,405.63083,261.79355,405.63083C261.49997,405.63083,261.23373,405.57532,261.04764,405.48773C260.81268,405.36047,260.02008,405.27164,259.45877,405.27164 Z"/> </g> <g style="fill:rgb(0,0,0); fill-opacity:1.0; stroke-linejoin: miter"> <path d="M422.79364,429.07172C422.71887,429.07138,422.599,429.13068,422.55377,429.22018C422.50854,429.29477,422.5232,429.3696,422.6129,429.37C422.68768,429.37033,422.80762,429.29608,422.8528,429.2215C422.89807,429.132,422.88336,429.0721,422.79364,429.07172 Z M421.49005,429.51456C421.41473,429.51483,421.2057,429.6183,421.04114,429.73685C420.89108,429.85583,420.8308,429.96024,420.92053,429.96063C420.9953,429.96097,421.20508,429.8572,421.37012,429.7383C421.51974,429.6197,421.58008,429.51556,421.49152,429.5146 Z M415.23322,439.89288C415.19608,439.89273,415.15308,439.89816,415.10443,439.90915C414.93973,439.95328,414.80475,440.0424,414.8044,440.11716C414.80408,440.19193,414.93842,440.25235,415.1029,440.25308C415.2674,440.2538,415.40234,440.16467,415.4029,440.04504C415.40332,439.94412,415.34467,439.89337,415.23322,439.89288 Z M285.7836,461.75296C285.725,461.75272,285.6815,461.82428,285.6267,461.97733C285.44528,462.42514,285.74243,462.8601,286.22095,462.8622C286.59485,462.84894,286.5949,462.83398,286.35645,462.65347C286.22235,462.5482,286.10358,462.35327,286.1041,462.23364C286.1046,462.114,286.03058,461.9492,285.92636,461.84406C285.86728,461.78445,285.82217,461.75314,285.7836,461.75296 Z M286.47186,463.611C286.35223,463.61047,286.24744,463.63992,286.24728,463.66983C286.24716,463.69974,286.35156,463.76,286.47095,463.82034C286.50925,463.8349,286.54602,463.84177,286.57834,463.84192C286.64685,463.84222,286.69528,463.81235,286.6955,463.76154C286.6959,463.6718,286.5915,463.61154,286.47186,463.611 Z M287.21503,464.21243C286.96268,464.2115,286.96338,464.2417,287.29077,464.42212C287.46146,464.5116,287.627,464.5527,287.73502,464.5532C287.88187,464.55383,287.92233,464.4794,287.72473,464.34927C287.60565,464.2741,287.3822,464.21338,287.2178,464.21246 Z M395.61328,468.4297C395.58337,468.42957,395.50836,468.48904,395.46307,468.57855C395.4179,468.65314,395.4774,468.72815,395.61197,468.72876C395.74655,468.72934,395.8067,468.65485,395.76215,468.5799C395.7177,468.48996,395.6432,468.4298,395.61328,468.4297 Z M396.60703,469.7919C396.4831,469.79135,396.42255,469.82993,396.47418,469.869C396.50015,469.89517,396.55646,469.9114,396.61963,469.9117C396.66516,469.9119,396.7143,469.9038,396.75824,469.88522C396.87805,469.84088,396.8334,469.7958,396.6689,469.7951C396.64688,469.79297,396.6262,469.79196,396.60703,469.7919 Z M300.40668,471.12668C300.31473,471.12628,300.27054,471.2089,300.2698,471.37308C300.26935,471.47775,300.47797,471.6432,300.73178,471.734C301.00406,471.83008,301.17078,471.88336,301.2422,471.88367C301.35095,471.88416,301.2389,471.76184,300.94226,471.48074C300.69183,471.24435,300.5157,471.12717,300.40668,471.12668 Z M311.2172,478.27948C311.21,478.27945,311.2043,478.28128,311.2004,478.2852C311.09528,478.3894,311.31793,478.76422,311.61618,478.94498C311.71402,479.00943,311.78036,479.04083,311.81522,479.041C311.90244,479.04138,311.79196,478.84558,311.48367,478.48083C311.38016,478.36334,311.26517,478.2797,311.2172,478.27948 Z M325.2608,480.59964C325.2304,480.59952,325.19974,480.60608,325.1719,480.61984C325.0819,480.67926,325.0815,480.76898,325.18573,480.87415C325.24832,480.93732,325.31113,480.96448,325.3624,480.9647C325.4695,480.96518,325.52628,480.84793,325.42578,480.69574C325.39508,480.63367,325.3286,480.59995,325.2608,480.59964 Z M336.65057,484.17197C336.59674,484.17172,336.5894,484.23328,336.63986,484.3641C336.66934,484.4689,336.9226,484.67938,337.19107,484.84506L337.66837,485.11633L337.23685,484.6359C336.9506,484.3378,336.73856,484.17236,336.65057,484.17197 Z M338.57642,485.5288C338.44275,485.5282,338.33926,485.57434,338.33884,485.6726C338.33844,485.76233,338.4576,485.86755,338.59192,485.92795C338.74124,485.97348,338.96497,486.10904,339.08408,486.22922C339.61826,486.7267,339.87625,486.93124,339.99997,486.9318C340.05557,486.93204,340.08408,486.89105,340.09833,486.8169C340.1746,486.4733,339.8478,485.97836,339.54874,485.97705C339.3992,485.97638,339.19034,485.8708,339.08618,485.7507C338.96915,485.60727,338.74796,485.52954,338.57642,485.5288 Z M346.91556,487.2059C346.79593,487.20535,346.7358,487.26492,346.7803,487.3548C346.82483,487.42978,346.92917,487.505,347.0189,487.5054C347.09366,487.50574,347.1538,487.4312,347.15414,487.35645C347.1545,487.26675,347.05014,487.20648,346.91556,487.2059 Z M347.33728,487.5105C347.3149,487.5104,347.30292,487.52875,347.30276,487.56647C347.3026,487.59637,347.42172,487.71652,347.55582,487.8218C347.66473,487.9111,347.72702,487.95648,347.7441,487.95654C347.76447,487.95663,347.72092,487.89267,347.6159,487.76224C347.48352,487.59784,347.38586,487.5107,347.33728,487.5105 Z M304.48044,405.96216C304.7765,405.96347,305.00812,405.9892,305.0595,406.04623C305.134,406.10638,306.9279,406.23392,309.6191,406.33554C310.88995,406.38602,311.23355,406.4623,311.71082,406.74854C312.0389,406.94437,312.33694,407.18497,312.39642,407.25998C312.4133,407.28552,312.4302,407.2978,312.4458,407.29788C312.4852,407.29803,312.51624,407.22034,312.51685,407.0811C312.51797,406.82687,312.608,406.7525,312.89212,406.75375C313.16135,406.75494,313.2657,406.83017,313.26474,407.03952C313.2633,407.3685,313.86084,407.50574,315.4459,407.51273C316.13376,407.51575,316.597,407.5926,316.79074,407.74298C316.96957,407.87836,317.44775,407.95523,318.16544,407.97336C319.13742,407.97766,319.34653,408.0384,319.8832,408.4146C320.24094,408.67038,320.7933,408.88217,321.18185,408.9437C321.86935,409.0215,323.03354,409.5201,323.19687,409.79C323.24136,409.865,323.49527,409.9409,323.74948,409.942C323.98874,409.94305,324.3771,410.0345,324.58594,410.15503C324.80972,410.27567,325.15292,410.44168,325.36188,410.53232C325.57083,410.62296,325.8394,410.75873,325.95874,410.8191C326.42117,411.0903,327.2421,411.43793,327.66037,411.52948C327.8845,411.57535,328.2576,411.7415,328.48123,411.892C328.6899,412.04248,329.15213,412.34357,329.49515,412.55444C329.83817,412.7653,330.22525,413.15582,330.37372,413.39572C330.65573,413.8755,331.14792,414.1618,331.68625,414.16418C331.8657,414.16498,332.179,414.33084,332.35757,414.52603C332.55106,414.73624,332.84933,414.91702,333.02866,414.94772C333.2229,414.9785,333.44614,415.21872,333.60916,415.5484C333.8463,416.02798,333.96555,416.11823,334.3693,416.12C334.77304,416.1218,334.90717,416.22705,335.20407,416.72186C335.47128,417.15668,335.72458,417.36716,336.1129,417.47357C336.42654,417.56467,336.70993,417.7304,336.75427,417.85025C336.79852,417.98502,337.02243,418.07574,337.27664,418.07684C337.60562,418.0783,337.79956,418.18384,337.99265,418.48376C338.4084,419.1435,338.9149,419.57938,339.28873,419.58105C339.48312,419.5819,339.72192,419.68762,339.82605,419.8077C339.9302,419.92783,340.09424,420.0332,340.18396,420.0336C340.27368,420.034,340.51187,420.27432,340.70502,420.5593C340.89816,420.84427,341.16626,421.08472,341.30084,421.08533C341.45038,421.08597,341.68915,421.1917,341.85315,421.31207C342.00214,421.43234,342.24097,421.5381,342.3606,421.5386C342.48022,421.53915,342.92737,421.87012,343.32922,422.2906C343.74615,422.69617,344.3422,423.1773,344.67035,423.35822C344.99854,423.5391,345.31158,423.7648,345.3859,423.8698C345.4452,423.9897,345.69885,424.11044,345.93787,424.17133C346.50555,424.29346,347.26483,425.05945,347.38202,425.61328C347.4405,425.91257,347.5744,426.0627,347.87323,426.12384C348.11218,426.18472,348.38086,426.30554,348.47003,426.42557C348.55933,426.53064,349.06696,426.7123,349.61975,426.81943C350.48627,427.00272,350.63547,427.07816,350.9473,427.573C351.30368,428.14282,352.13837,428.7596,352.5421,428.7614C352.6767,428.762,353.01978,428.95792,353.28778,429.21332C353.5857,429.48376,353.9737,429.66492,354.21295,429.666C354.52698,429.66736,354.64612,429.77258,354.77917,430.1171C354.8678,430.3717,355.09106,430.61197,355.25534,430.65756C355.41956,430.71808,355.70294,430.88382,355.8667,431.04904C356.02396,431.1971,356.17413,431.26364,356.3485,431.2644C356.42188,431.26474,356.49945,431.25342,356.58368,431.23166C356.65497,431.2152,356.7274,431.207,356.79996,431.2073C356.98645,431.20813,357.17392,431.2654,357.34564,431.38458C357.53943,431.52002,357.80817,431.6259,357.94275,431.62646C358.19696,431.6276,359.28656,432.08102,359.98773,432.45798C360.19653,432.57852,360.56992,432.68484,360.80917,432.6859C361.04843,432.68695,361.49646,432.8235,361.8247,432.98944C362.15295,433.15536,362.54114,433.2917,362.72058,433.29248C362.88507,433.2932,363.28833,433.39966,363.61682,433.52075C363.94525,433.6418,364.543,433.7342,364.9317,433.75085C365.33545,433.75262,365.81354,433.85944,366.02228,433.99493C366.25107,434.15796,366.60217,434.224,367.16348,434.22647C367.22388,434.22675,367.28674,434.2263,367.35214,434.22513C367.39783,434.22424,367.4433,434.22394,367.4886,434.22412C368.08008,434.22675,368.63434,434.32043,369.17523,434.5173C369.89185,434.7747,370.41504,434.82184,372.1197,434.84433C373.51035,434.85046,374.34747,434.914,374.67584,435.05002C374.8576,435.13278,375.02844,435.1711,375.1681,435.17175C375.2578,435.17212,375.3347,435.15695,375.3933,435.12796C375.46387,435.08136,375.62833,435.05972,375.83966,435.06067C376.0326,435.06152,376.2646,435.08118,376.49994,435.1179C376.91528,435.17166,377.6578,435.21564,378.2574,435.2183C378.34814,435.2187,378.43567,435.2181,378.51825,435.21652C379.5053,435.19098,379.7448,435.13223,380.17993,434.80518C380.51324,434.55038,380.96655,434.4166,381.4135,434.41858C381.67078,434.4197,381.92593,434.4658,382.1549,434.55966C382.2206,434.5874,382.31653,434.60117,382.43088,434.60165C382.62833,434.60254,382.8807,434.56384,383.12723,434.4892C383.5016,434.37122,384.145,434.28433,384.54874,434.28613C384.96744,434.28796,385.6858,434.15656,386.16504,433.99417C386.62933,433.83173,387.10843,433.69928,387.2131,433.69974C387.33273,433.70026,387.63226,433.59692,387.90204,433.4635C388.17178,433.3301,388.87512,433.2136,389.59302,433.18686C390.3109,433.16013,390.84964,433.07278,390.87994,432.9832C390.91025,432.8936,391.09003,432.81964,391.28442,432.82053C391.46387,432.82132,391.6587,432.7175,391.71906,432.5981C391.76453,432.46375,391.9892,432.375,392.22845,432.37607C392.4677,432.37714,392.75232,432.2737,392.8575,432.15454C392.9627,432.03537,393.23233,431.9319,393.45667,431.93286C393.68097,431.93387,394.04044,431.80087,394.2505,431.6373C394.46057,431.47372,394.7154,431.34027,394.83502,431.34082C394.9397,431.34128,395.2543,431.20807,395.52417,431.04477C395.79407,430.88147,396.1386,430.7484,396.3031,430.74915C396.4676,430.74985,396.60236,430.7056,396.60266,430.63083C396.6032,430.5112,397.5475,430.02188,398.55115,429.62256C398.92563,429.4747,399.3302,429.2821,399.45026,429.1929C399.82544,428.89548,400.67944,428.52542,400.9785,428.52673C401.12802,428.5274,401.53296,428.26,401.8634,427.9325C402.19382,427.60495,402.59875,427.3376,402.7483,427.33823C402.88287,427.33884,403.09268,427.23508,403.19788,427.1159C403.3031,426.99673,403.46802,426.8928,403.5727,426.89325C403.6624,426.89365,403.82764,426.7299,403.91827,426.52094C404.03333,426.27597,404.2558,426.1497,404.5073,426.1508C404.68475,426.15158,404.8767,426.21582,405.05554,426.34653C405.17102,426.4397,405.36743,426.49738,405.54053,426.49814C405.59082,426.49835,405.63916,426.49377,405.68298,426.4839C405.9673,426.44028,406.0426,426.32095,406.04407,425.992C406.04565,425.63312,406.10577,425.55862,406.41983,425.56003C406.67404,425.56113,406.79327,425.6514,406.79254,425.8159C406.7921,425.91708,406.79886,425.9694,406.8365,425.96954C406.87665,425.96973,406.95215,425.9103,407.09174,425.7873C407.2569,425.6385,407.3927,425.35495,407.3936,425.16055C407.3945,424.9512,407.57553,424.5931,407.8009,424.35486C408.06976,424.0717,408.38013,423.92435,408.60114,423.92532C408.7753,423.9261,408.89398,424.019,408.89316,424.21014C408.8922,424.42377,409.16608,424.60806,409.3775,424.609C409.4621,424.60938,409.53668,424.5804,409.5797,424.51224C409.62488,424.43768,409.81955,424.37872,410.0289,424.37964C410.22327,424.3805,410.38803,424.3214,410.38837,424.24664C410.3891,424.08215,411.588,423.4893,411.90204,423.4907C412.02167,423.4912,412.20172,423.35742,412.3071,423.1934C412.4125,423.02936,412.60748,422.89563,412.75705,422.8963C412.9066,422.89697,413.17645,422.73367,413.3568,422.52515C413.56357,422.28607,413.75507,422.16974,413.98474,422.17075C414.15582,422.1715,414.34814,422.23737,414.58374,422.36606C414.7052,422.43542,414.79303,422.47653,414.88446,422.47693C415.05133,422.47766,415.23016,422.34286,415.6471,421.99692C416.0373,421.6846,416.42725,421.41714,416.51697,421.41754C416.72632,421.4185,417.91034,420.8106,418.15063,420.5724C418.2558,420.46817,418.43564,420.37924,418.5403,420.37973C418.74966,420.38065,419.73877,419.89154,420.05392,419.6387C420.15216,419.55527,420.28064,419.51843,420.41278,419.519C420.7047,419.5203,421.01434,419.70428,421.05435,419.9721C421.08536,420.22107,421.203,420.3541,421.30573,420.35455C421.39435,420.35495,421.4718,420.25656,421.47272,420.04874C421.47607,419.30115,421.61115,419.19705,422.4635,419.20084C423.1663,419.20392,423.2708,419.23428,423.2696,419.50336C423.2688,419.6828,423.16357,419.80197,422.99902,419.81622C422.83447,419.83044,422.86426,419.86047,423.10318,419.9363C423.79025,420.11877,423.93588,421.0017,423.29288,420.99887C423.1284,420.99814,422.91864,421.08694,422.8284,421.20618C422.67807,421.38495,422.70776,421.42993,422.9917,421.47607C423.77252,421.5827,423.2102,423.09296,422.40637,423.08942C422.3948,423.08936,422.38318,423.089,422.37146,423.08832C422.1917,423.07394,422.0489,423.06512,421.93634,423.06464C421.5528,423.06293,421.5208,423.15784,421.57727,423.45865C421.63565,423.7879,421.59058,423.83255,421.15692,423.83063C420.90274,423.82953,420.49847,423.94736,420.2884,424.11093C420.06342,424.25946,419.73364,424.43747,419.53906,424.48148C419.1647,424.59946,418.45905,425.23935,418.45798,425.4786C418.45764,425.55338,418.24783,425.65714,418.00836,425.70093C417.724,425.7595,417.5589,425.89334,417.5582,426.05783C417.557,426.32697,417.19647,426.69922,416.76215,426.84683C416.61237,426.906,416.50684,427.09995,416.50583,427.32425C416.50488,427.5381,416.5094,427.6296,416.59192,427.62997C416.6537,427.63025,416.75916,427.57944,416.93875,427.49063C417.1786,427.35712,417.40384,427.14874,417.46423,427.01443C417.51486,426.88126,417.72217,426.82315,417.97717,426.82428C418.40826,426.8262,418.9756,426.9973,419.15295,427.26117C419.28906,427.45514,419.5602,427.55423,419.87982,427.55563C420.15335,427.55685,420.46237,427.4865,420.75262,427.343C421.0374,427.1947,421.45642,427.1218,421.81906,427.12338C422.1817,427.125,422.4879,427.2011,422.54706,427.35092C422.59494,427.47714,422.69342,427.53445,423.0094,427.53586C423.1809,427.53662,423.41644,427.5209,423.74274,427.49078C424.02615,427.46762,424.25366,427.45535,424.44458,427.4562C424.83807,427.45795,425.076,427.51532,425.32715,427.6473C425.54755,427.7549,425.67896,427.8078,425.79053,427.80832C425.898,427.80878,425.98712,427.7606,426.11963,427.66577C426.2996,427.54694,426.5393,427.44333,426.64398,427.4438C426.91315,427.44498,427.88715,426.98572,428.15747,426.7327C428.26724,426.63745,428.5644,426.56808,428.90015,426.56958C428.93164,426.5697,428.9635,426.57047,428.99557,426.5719C429.05814,426.57648,429.1176,426.57886,429.17413,426.57913C429.50903,426.5806,429.73956,426.50656,429.8937,426.36652C430.10184,426.16025,430.44235,426.07858,431.29755,426.08237C431.55322,426.0835,431.85486,426.09225,432.2127,426.1076C433.4686,426.15802,433.70752,426.2338,433.706,426.57773C433.70453,426.9067,433.5099,426.96567,432.04385,427.09378C431.25098,427.16507,430.96646,427.2535,430.69598,427.5514C430.50067,427.7599,430.18597,427.90805,429.96167,427.90704C429.6626,427.90573,429.46753,428.0544,429.1966,428.45697C428.88037,428.94907,428.7155,429.03806,428.01202,429.18448C427.06918,429.35977,426.27533,429.6553,426.70892,429.67218C426.90326,429.688,426.96265,429.77798,426.9317,430.0171C426.8855,430.31598,426.76563,430.37524,425.91272,430.49112C425.35913,430.56345,424.89496,430.69598,424.81967,430.81528C424.74432,430.94952,424.42996,431.02292,423.98138,431.02094C423.47296,431.01868,423.1585,431.10703,422.91833,431.3153C422.7232,431.47894,422.36374,431.61194,422.09457,431.61075C421.5413,431.6083,421.1809,431.95065,421.2386,432.42944C421.28214,432.7287,421.1922,432.77316,420.50397,432.85986C420.25024,432.89496,420.0076,432.91367,419.8457,432.91293C419.74026,432.91248,419.6691,432.90378,419.6515,432.886C419.64456,432.879,419.6362,432.8756,419.6266,432.87558C419.57425,432.87534,419.48535,432.97516,419.39618,433.13907C419.22687,433.46207,419.24994,433.76672,419.3973,433.76736C419.4337,433.76752,419.47766,433.74915,419.5282,433.7079C419.73834,433.52936,421.17566,433.13196,422.23822,432.9423C422.6423,432.8693,423.1662,432.75198,423.37604,432.64822C423.55383,432.57803,423.82513,432.53632,424.0417,432.5373C424.09882,432.53754,424.15213,432.54074,424.1989,432.54718C424.54272,432.5786,424.6469,432.68375,424.67538,433.01285C424.7041,433.24097,424.73343,433.33765,424.798,433.33795C424.83087,433.33807,424.8728,433.3133,424.92847,433.26816C425.02722,433.1948,425.25754,433.1422,425.48596,433.14322C425.5351,433.14343,425.58417,433.14612,425.63184,433.15164C426.00552,433.1832,426.1397,433.27353,426.16852,433.52786C426.22632,433.97675,425.12988,435.06354,424.62146,435.06128C424.3523,435.0601,424.15732,435.19382,423.9765,435.50705C423.82578,435.77554,423.60068,435.95404,423.40628,435.9532C423.22684,435.9524,422.77753,436.1149,422.38782,436.32254C421.98306,436.545,421.42914,436.6921,421.0852,436.69058C420.77118,436.6892,420.50174,436.74783,420.50134,436.83755C420.50104,436.91232,420.261,437.0907,419.9613,437.22397C419.66162,437.35724,419.34656,437.5951,419.2561,437.7592C419.1508,437.90826,418.9708,438.0271,418.8362,438.02652C418.70163,438.0259,418.55164,438.12994,418.49127,438.2493C418.43976,438.39325,418.15277,438.47363,417.8869,438.47247C417.68408,438.47156,417.49353,438.42322,417.42926,438.31937C417.418,438.3009,417.3947,438.2923,417.36176,438.29214C417.04752,438.29077,415.85587,439.05716,415.85474,439.31433C415.85425,439.42447,415.85718,439.4839,415.98306,439.48447C416.13068,439.4851,416.44745,439.4048,417.12616,439.23022C417.45557,439.14197,418.14374,439.07022,418.65216,439.07248C419.56433,439.0765,419.59418,439.09158,419.59253,439.46542C419.59125,439.74954,419.47104,439.88358,419.03662,440.0611C418.79602,440.16806,418.48816,440.2362,418.27563,440.23526C418.2234,440.23502,418.17694,440.23065,418.13864,440.22162C418.09845,440.21432,418.06006,440.21045,418.0231,440.21027C417.82654,440.2094,417.66907,440.31412,417.47913,440.5776C417.2835,440.84592,417.04355,441.00934,416.81924,441.00836C416.62485,441.00748,416.40015,441.09622,416.33978,441.21558C416.27954,441.32,415.93454,441.55774,415.58984,441.73566C415.23016,441.9135,414.67496,442.34473,414.32938,442.71704C413.9237,443.14893,413.53372,443.41635,413.20447,443.4747C412.93512,443.51837,412.63547,443.65164,412.53027,443.7708C412.44,443.89005,412.27512,443.97903,412.17044,443.97858C412.06577,443.97812,411.90082,444.08206,411.7956,444.20123C411.6904,444.32037,411.45068,444.424,411.2563,444.42316C411.0619,444.4223,410.83707,444.54092,410.7616,444.70508C410.6712,444.85422,410.44617,445.01773,410.26654,445.0618C410.07187,445.12076,409.8319,445.28418,409.72644,445.4632C409.56073,445.73163,409.57556,445.7616,409.85968,445.76285C410.727,445.7667,410.97855,446.36597,410.407,447.11108C410.19107,447.40527,409.8366,447.57047,409.555,447.5692C409.36572,447.5684,409.20932,447.49237,409.14993,447.32986C409.0974,447.18793,409.01898,447.1158,408.9081,447.11533C408.7382,447.11456,408.49213,447.2821,408.14673,447.6245C407.69617,448.07114,407.6659,448.14575,407.9201,448.14688C408.12946,448.1478,408.20386,448.23785,408.15793,448.47693C408.12677,448.7609,408.0068,448.83514,407.48328,448.86273C406.9897,448.89047,406.7649,449.00912,406.40414,449.42624C406.14868,449.70923,405.93805,449.9924,405.9378,450.0522C405.93753,450.112,406.19156,450.158,406.50558,450.1594C406.9093,450.16116,407.19397,450.0428,407.5093,449.74515C407.74957,449.52188,408.00458,449.34357,408.0644,449.34384C408.13916,449.34418,408.18427,449.28455,408.1846,449.20978C408.18494,449.135,408.3805,448.8667,408.6359,448.59866C408.9284,448.2835,409.11288,448.17148,409.39832,448.17273C409.45007,448.17297,409.5052,448.1769,409.56488,448.18405C409.98346,448.21582,410.07275,448.30594,410.1012,448.63504C410.1298,448.93423,410.23395,449.05435,410.4433,449.05527C410.59283,449.05594,410.72714,449.11633,410.7268,449.1911C410.72617,449.33893,410.8977,449.42685,411.06512,449.42758C411.1856,449.42813,411.30396,449.3835,411.35446,449.2836C411.43735,449.1419,411.59467,449.0716,411.761,449.07233C411.92737,449.07306,412.10278,449.14484,412.22174,449.2874C412.32593,449.40753,412.5348,449.51312,412.68436,449.5138C412.84885,449.5145,412.9682,449.57486,412.9679,449.64963C412.96753,449.7244,413.20633,449.8301,413.5052,449.8763C413.93848,449.96793,414.02783,450.04306,413.9818,450.31204C413.94244,450.57175,413.71997,450.70172,413.32043,450.69995C412.9384,450.69827,412.3944,450.57614,411.69376,450.33185C411.58612,450.2954,411.52155,450.276,411.49823,450.27545L411.4967,450.27545C411.465,450.27597,411.52267,450.31757,411.6635,450.40646C411.97662,450.61722,412.00415,451.15567,411.69012,451.1543C411.55554,451.1537,411.40536,451.30258,411.32974,451.49664C411.17847,451.88477,410.32297,452.5988,408.98822,453.47513C408.32837,453.90588,408.16315,454.06964,408.37234,454.10046C408.3863,454.1033,408.4014,454.10477,408.41748,454.10483C408.5741,454.10553,408.82465,453.97827,409.00177,453.7892C409.18207,453.5956,409.58682,453.37314,409.90112,453.3147C410.21533,453.27124,410.60477,453.1234,410.76978,453.00452C410.98187,452.86008,411.27243,452.7919,411.54474,452.79312C411.88876,452.79465,412.20367,452.90686,412.29456,453.1159L412.42786,453.4156L412.83292,453.1183C413.04306,452.9398,413.32776,452.80646,413.4474,452.80698C413.56702,452.8075,413.74695,452.7036,413.8521,452.58447C413.98755,452.4215,414.14417,452.34842,414.2943,452.34906C414.6109,452.35046,414.89847,452.68002,414.89624,453.18723C414.8947,453.53113,414.78925,453.7101,414.53445,453.84357C414.3396,453.9474,414.0243,454.23013,413.85876,454.46866C413.63312,454.76672,413.40823,454.90033,413.10916,454.89902C412.86993,454.89795,412.60034,454.98648,412.5101,455.1057C412.4049,455.22488,412.13507,455.37323,411.89563,455.41702C411.65616,455.46085,411.38635,455.6092,411.28113,455.72833C411.1909,455.84756,410.9662,455.9363,410.78674,455.93552C410.56244,455.93454,410.39722,456.0983,410.21582,456.5461C410.01935,457.0088,409.8241,457.20233,409.37473,457.3798C408.83545,457.58676,408.79034,457.64636,408.8031,458.1399C408.81567,458.6783,408.80066,458.69318,408.00702,458.94394C407.55774,459.0915,407.01825,459.35828,406.80804,459.55173C406.59784,459.7452,406.25278,459.9979,406.04282,460.13156C405.80292,460.28,405.68234,460.48883,405.66608,460.78784C405.66443,461.16168,405.60428,461.23618,405.14044,461.29395C404.85614,461.33755,404.27203,461.54434,403.86743,461.73694L403.1181,462.10748L403.7908,462.1553C404.16452,462.1869,404.5379,462.2932,404.61218,462.39822C404.70148,462.50327,405.02985,462.6393,405.35852,462.7006C406.94244,462.97675,406.92755,462.96173,406.92596,463.32062C406.92477,463.58978,406.8197,463.67902,406.3708,463.7518C406.05652,463.79526,405.5479,463.8379,405.24884,463.83658C404.94977,463.83524,404.65045,463.89374,404.6052,463.98328C404.54507,464.07587,404.43512,464.1212,404.2871,464.12054C404.10147,464.11972,403.85596,464.0466,403.57373,463.90393C403.36765,463.79678,403.1939,463.74335,403.05902,463.74277C402.8521,463.74185,402.7365,463.8652,402.7354,464.1096C402.73376,464.48343,402.98764,464.55933,404.75134,464.74655C406.32083,464.903,407.7552,465.17853,408.0683,465.38928C408.1726,465.4645,408.2614,465.67426,408.26062,465.8537C408.25885,466.25745,407.8246,466.3901,406.61337,466.38477C406.16476,466.38278,405.8354,466.47104,405.71515,466.6051C405.59485,466.75412,405.24686,466.82733,404.89734,466.8258C404.5478,466.82425,404.19672,466.74792,404.07025,466.59784C403.99207,466.5014,403.91876,466.45602,403.83246,466.45563C403.77106,466.45535,403.703,466.47794,403.622,466.5211C403.47205,466.61014,403.20264,466.66876,403.03815,466.66803C402.78394,466.66693,402.72372,466.75638,402.7218,467.19L402.71948,467.71338L401.8223,467.7094C401.16434,467.7065,400.73022,467.80927,400.20575,468.06116C399.66614,468.3429,399.24704,468.4308,398.3947,468.427C397.15344,468.45145,396.94382,468.51035,397.19666,468.82547C397.28583,468.9455,397.3296,469.19992,397.29874,469.40912C397.23773,469.66302,397.28207,469.78284,397.41663,469.78345C397.53625,469.78397,397.62573,469.84418,397.62546,469.904C397.62527,469.94778,397.84955,469.97653,398.16925,469.97794C398.28625,469.97845,398.41608,469.97534,398.5523,469.9679C399.15063,469.9257,399.67578,469.9064,400.1233,469.9084C401.01828,469.91232,401.60275,470.0013,401.8413,470.16187C402.04736,470.30948,402.19724,470.38547,402.31747,470.386C402.4669,470.38666,402.57053,470.2708,402.6793,470.031C402.7953,469.7776,402.9937,469.66388,403.1888,469.66473C403.47632,469.66602,403.75647,469.9161,403.75464,470.3348C403.7525,470.8133,403.33258,471.09558,402.49463,471.21152C402.07574,471.25452,401.7013,471.38745,401.6261,471.4918C401.52966,471.643,401.61667,471.72263,401.80536,471.72345C401.9702,471.72418,402.2127,471.66476,402.4782,471.5404C402.79352,471.38834,403.01788,471.3146,403.1918,471.3154C403.35675,471.31613,403.47632,471.38388,403.58493,471.5154C403.68906,471.6355,403.98755,471.7714,404.27145,471.8175C404.68976,471.9091,404.79404,471.99927,404.79285,472.26843C404.79126,472.62735,404.53625,472.80566,404.0428,472.8035C403.9082,472.8029,403.6984,472.90665,403.5932,473.02582C403.47278,473.1707,403.14227,473.2462,402.8396,473.24484C402.6132,473.24384,402.4024,473.1999,402.30682,473.10986C402.19867,472.99347,401.68677,472.93497,401.09576,472.93234C400.46667,472.92957,399.7479,472.99014,399.331,473.11166C398.68713,473.30322,398.62714,473.3478,398.91083,473.43878C399.10498,473.49948,399.25372,473.67957,399.25305,473.8291C399.25177,474.1132,399.117,474.15747,397.80023,474.34604C397.471,474.40442,397.06668,474.5372,396.90173,474.64114C396.75165,474.76013,396.37738,474.86316,396.0783,474.86182C395.33063,474.85852,395.06085,474.9919,395.0594,475.3209C395.05835,475.56015,394.93854,475.6045,394.32544,475.60178C393.54785,475.59836,392.9209,475.34137,392.60883,474.9063C392.5107,474.77686,392.4547,474.71307,392.39386,474.7128C392.33484,474.71252,392.27124,474.77203,392.16028,474.88937C391.99295,475.0465,391.60474,475.13577,391.28235,475.13434C391.05505,475.13333,390.86047,475.08725,390.79904,474.98804C390.75458,474.89813,390.41092,474.8368,390.067,474.83527C389.45392,474.83258,389.42392,474.84738,389.4971,475.2066C389.55548,475.53586,389.4954,475.5954,389.06134,475.6832C388.56732,475.80066,388.56732,475.80066,389.29974,475.87866C389.48703,475.9003,389.69043,475.91235,389.87115,475.91318C390.07983,475.9141,390.25824,475.9,390.34656,475.86832C390.5113,475.80923,391.06497,475.72195,391.57364,475.6644C391.87402,475.63126,392.0788,475.6107,392.2236,475.61133C392.51874,475.61264,392.56482,475.7021,392.664,475.95334C392.75568,476.20682,392.84793,476.32706,392.97025,476.32758C393.06476,476.328,393.17725,476.25696,393.32123,476.12073C393.4679,475.96808,393.81015,475.8947,394.13586,475.89615C394.47745,475.89764,394.80084,475.98148,394.8614,476.1425C394.99432,476.5169,394.60315,477.05353,394.0942,477.17093C393.83972,477.2296,393.2563,477.2868,392.80765,477.28482C391.98517,477.29614,391.9702,477.29608,392.02817,477.71506C392.0863,478.08917,392.04126,478.13382,391.66742,478.13217C390.62067,478.12756,388.76495,478.4633,388.764,478.67264C388.76355,478.7773,388.85287,478.86743,388.95755,478.8679C389.07718,478.86844,389.28595,479.00394,389.43475,479.1691C389.58356,479.33423,389.8222,479.46988,389.9867,479.4706C390.15118,479.4713,390.25537,479.57648,390.25452,479.77087C390.25342,480.0251,390.14856,480.06946,389.4607,480.06644C388.8177,480.0636,388.6385,480.003,388.41553,479.7029C388.20294,479.43475,388.073,479.36993,387.46112,479.36722C387.38815,479.36688,387.30835,479.36746,387.2207,479.36865C386.42804,479.39505,386.29324,479.43933,386.2473,479.6784C386.21667,479.84274,386.08112,480.06647,385.94614,480.15558C385.79138,480.27826,385.4063,480.3403,385.04926,480.33875C384.7138,480.33725,384.403,480.27963,384.33112,480.1634C384.30634,480.12842,384.2815,480.11002,384.256,480.10992C384.20505,480.10968,384.15155,480.18256,384.09106,480.3418C384.01166,480.5433,383.94125,480.61868,383.7597,480.6179C383.6992,480.6176,383.6263,480.60892,383.53668,480.59357C383.45944,480.5785,383.3867,480.57068,383.3171,480.57037C383.10403,480.56943,382.92062,480.63867,382.72833,480.78436C382.4432,481.00742,382.09897,481.08066,381.3961,481.0925C380.88766,481.09027,380.1547,481.14685,379.7956,481.19012C379.19705,481.2772,379.15207,481.30692,379.39047,481.50235C379.53946,481.62265,379.83807,481.72864,380.04736,481.7445C380.27158,481.76047,380.86966,481.77808,381.37802,481.79526C382.26016,481.82907,382.31985,481.85922,382.3184,482.1882C382.31693,482.51718,382.24203,482.54678,381.12015,482.63153C380.79895,482.65787,380.48416,482.6695,380.19214,482.6682C379.38248,482.66464,378.748,482.5616,378.63882,482.39627C378.6332,482.3849,378.61838,482.3794,378.59595,482.3793C378.50046,482.37888,378.2676,482.4764,378.0247,482.6328C377.67557,482.86942,377.29333,482.99368,376.98795,482.9923C376.7947,482.9915,376.63223,482.94034,376.5284,482.83557C376.4374,482.74377,375.8837,482.7023,374.78726,482.69748C374.44846,482.69598,374.0578,482.69797,373.613,482.70306C371.3997,482.73813,370.81625,482.79538,370.53128,482.98853C370.2012,483.22632,370.20114,483.24127,370.4999,483.31738C370.82846,483.40854,370.9158,483.94727,370.6013,484.0655C370.5114,484.095,370.60074,484.18512,370.82477,484.2459C371.13846,484.32208,371.2426,484.44217,371.24136,484.7263C371.2386,485.35434,371.50638,485.66956,372.02975,485.67188C372.29892,485.67307,372.64243,485.76428,372.80637,485.88467C372.97043,485.99008,373.49326,486.11203,373.95663,486.15894C374.46484,486.20602,374.9279,486.3277,375.0917,486.47797C375.24066,486.61322,375.53918,486.73416,375.73358,486.73502C376.3766,486.73785,376.64438,487.05307,376.58163,487.71075C376.53452,488.21896,376.47427,488.3234,376.1601,488.3519C375.95062,488.3809,375.68094,488.49933,375.5458,488.61835C375.4416,488.7108,375.1279,488.7504,374.75937,488.74878C374.11954,488.74594,373.31454,488.61884,373.15405,488.42834C373.06485,488.30832,372.78113,488.21735,372.54187,488.21628C372.30264,488.21524,371.959,488.13895,371.78006,488.03348C371.60098,487.94296,370.97342,487.8355,370.39035,487.80304L369.31406,487.7235L369.3871,488.11264C369.44553,488.4269,369.40033,488.5015,369.07095,488.58975C368.93564,488.61813,368.71307,488.63364,368.4959,488.6327C368.37677,488.63217,368.25925,488.62668,368.15866,488.61563C368.069,488.60403,367.99142,488.59808,367.92557,488.59778C367.72787,488.59692,367.63516,488.64697,367.6347,488.7479C367.63425,488.85605,367.17026,488.9015,366.56198,488.8988C365.57245,488.89444,364.2011,488.76273,363.8223,488.5666C363.60974,488.45914,363.40225,488.40967,363.056,488.4081C362.81882,488.40707,362.51657,488.42853,362.10303,488.46927C361.66403,488.51608,361.36673,488.54117,361.15335,488.54022C360.84323,488.53885,360.71054,488.48245,360.57822,488.35785C360.42416,488.21832,360.14877,488.15723,359.8253,488.1558C358.929,488.15182,357.6633,488.60614,357.58408,489.12222C357.55374,489.3471,357.2806,489.48767,357.02444,489.48654C356.88907,489.48596,356.7584,489.44577,356.67087,489.35745C356.56473,489.25037,356.38467,489.19724,356.23337,489.1966C356.08762,489.19592,355.96854,489.244,355.9681,489.3394C355.96768,489.44293,355.83582,489.48987,355.678,489.48917C355.47116,489.48825,355.2197,489.40552,355.16098,489.26105C355.1167,489.12628,354.8928,489.03555,354.59372,489.03424C354.32455,489.03305,354.01077,488.97186,353.90637,488.9116C353.8005,488.84033,353.6644,488.8082,353.52396,488.8076C353.1897,488.80612,352.8311,488.9831,352.79837,489.23566C352.75232,489.50464,352.64743,489.54904,351.8846,489.5905C351.77774,489.59616,351.679,489.59872,351.58945,489.59833C351.24057,489.59677,351.03244,489.55045,351.0328,489.46713C351.0331,489.39236,350.83908,489.31674,350.59982,489.31567C350.16617,489.31375,349.73434,488.89316,349.49814,488.20422C349.44122,488.0775,349.3575,488.00372,349.2538,488.00327C349.22263,488.0031,349.1896,488.00958,349.155,488.02325C349.02023,488.06754,348.82565,488.11154,348.72098,488.11108C348.60135,488.11053,348.556,488.21503,348.6,488.4096C348.72678,488.8913,348.39542,489.14883,347.87558,489.14655C347.49063,489.14484,347.00235,489.00064,346.52014,488.6995C346.13248,488.44357,345.71463,488.2473,345.60995,488.24686C345.50528,488.2464,345.34113,488.1709,345.2518,488.08078C345.19012,488.01855,345.09982,487.98474,345.02515,487.98444C344.99167,487.98428,344.96133,487.99084,344.9381,488.00464C344.72818,488.1383,345.50198,488.99408,345.84592,488.9956C345.9805,488.9962,346.1445,489.1016,346.20374,489.23645C346.24808,489.35626,346.44168,489.5366,346.63574,489.6122C347.02396,489.7485,347.14072,490.39203,346.82584,490.58505C346.63092,490.7038,347.76242,491.83032,348.32956,492.08704C348.76236,492.28336,349.1483,492.92807,349.02728,493.24158C348.9819,493.36102,348.74197,493.5095,348.48752,493.56818C348.14325,493.64142,348.02307,493.76053,347.99185,494.05948C347.96185,494.35577,347.79178,494.5169,347.57956,494.51596C347.45993,494.51544,347.3269,494.4634,347.198,494.355C346.54242,493.8138,346.08096,493.33325,346.08157,493.19867C346.08194,493.10895,345.50162,492.46335,344.78696,491.75735C343.92343,490.90118,343.38693,490.48013,343.16263,490.47916C342.96823,490.47827,342.74448,490.35767,342.67044,490.19284C342.5922,490.04596,342.4796,489.97537,342.3135,489.97464C342.25925,489.9744,342.1993,489.98163,342.13297,489.99606C342.06668,490.0057,342.00998,490.011,341.96106,490.01077C341.78894,490.01,341.7129,489.94122,341.6555,489.7547C341.6263,489.5901,341.47757,489.40997,341.34317,489.36453C341.19385,489.319,340.98495,489.2134,340.8657,489.1381C340.74637,489.0628,340.37332,488.8817,340.045,488.7307C339.71664,488.5947,339.4183,488.42886,339.37363,488.38382C339.32895,488.33875,339.15024,488.17346,338.97147,488.02313C338.81845,487.89447,338.72354,487.83423,338.6229,487.8338C338.54718,487.83347,338.46823,487.86697,338.35876,487.93073C338.25882,487.99118,338.17337,488.0251,338.06897,488.02463C337.8915,488.02383,337.65933,487.92374,337.2084,487.68637C336.74582,487.46002,336.1644,487.06866,335.92624,486.81342C335.6466,486.5421,335.50662,486.4431,335.2756,486.44208C335.1868,486.4417,335.0845,486.4558,334.95572,486.48013C334.83533,486.4981,334.73074,486.50757,334.6384,486.50714C334.43228,486.50623,334.2872,486.45618,334.1638,486.34204C334.02975,486.20688,333.55313,485.78607,333.1212,485.39532C332.67435,484.9896,332.18274,484.56873,332.04883,484.41858C331.91483,484.28342,331.67624,484.1328,331.51196,484.08722C331.36264,484.04172,331.01974,483.80093,330.7517,483.54556C330.4836,483.3051,330.2004,483.0945,330.1406,483.09424C330.03592,483.09378,329.6931,482.83804,329.17178,482.37216C329.1063,482.3281,328.9526,482.29968,328.781,482.29892C328.7182,482.29865,328.653,482.30203,328.58887,482.30978C328.4775,482.3252,328.3947,482.33545,328.3343,482.33517C328.1674,482.33444,328.17136,482.25345,328.2165,481.97916C328.27744,481.72522,328.23315,481.59042,328.09857,481.58984C327.9939,481.58936,327.81467,481.5437,327.68027,481.49826C327.63797,481.48395,327.60233,481.47635,327.57248,481.4762C327.476,481.47577,327.44077,481.55368,327.43997,481.73645C327.43903,481.94858,327.4086,482.02518,327.215,482.02432C327.13565,482.02396,327.02893,482.0106,326.88556,481.98822C326.58676,481.9271,326.27335,481.79114,326.2141,481.65628C326.13986,481.53632,325.9908,481.43097,325.8712,481.43045C325.7665,481.43,325.63226,481.33966,325.6028,481.23486C325.58908,481.20703,325.57523,481.1935,325.56268,481.19345C325.5347,481.19333,325.513,481.2601,325.51248,481.384C325.49664,481.57834,325.5857,481.72827,325.6904,481.72873C325.92966,481.7298,327.43362,483.172,327.4327,483.38135C327.43228,483.47107,327.56662,483.5315,327.71616,483.53214C327.8657,483.5328,328.0297,483.6382,328.08902,483.75812C328.13333,483.8779,328.26746,483.9832,328.3871,483.9837C328.49176,483.98416,328.6259,484.08942,328.68515,484.20932C328.72946,484.32916,328.89352,484.43454,329.04306,484.4352C329.20755,484.43594,329.49066,484.6615,329.6838,484.94647C329.87692,485.23145,330.14493,485.5018,330.2943,485.53238C330.6976,485.63885,330.64548,487.28354,330.24124,487.3864C330.09152,487.43063,329.95624,487.5945,329.95557,487.74405C329.95438,488.0132,329.8276,488.14725,329.54373,488.146C329.4491,488.14557,329.337,488.13013,329.2063,488.09964C328.68344,487.9777,327.59647,486.92615,327.47903,486.43216C327.42026,486.19263,327.2415,486.0423,326.98758,485.98138C326.2854,485.82874,326.2258,485.7836,326.22745,485.40973C326.2285,485.17047,326.12442,485.03543,325.9153,484.9747C325.75104,484.9291,325.5723,484.76382,325.52817,484.59912C325.4949,484.44046,325.41837,484.3673,325.26614,484.36664C325.21735,484.36642,325.1608,484.37363,325.09543,484.38788C325.02963,484.40073,324.97543,484.40784,324.9309,484.40765C324.77286,484.40695,324.73685,484.314,324.738,484.0573C324.73892,483.84796,324.65,483.66815,324.54532,483.6677C324.4556,483.6673,324.14297,483.35187,323.86044,482.99173C323.51855,482.52664,323.25034,482.3161,323.01108,482.31506C322.81668,482.3142,322.6525,482.2387,322.65283,482.16394C322.65323,482.07422,322.5787,482.01407,322.50394,482.01373C322.41425,482.01334,322.05667,481.71268,321.68442,481.35214C321.32712,480.99167,320.8801,480.6308,320.68594,480.58508C320.4918,480.5244,320.1043,480.22366,319.80655,479.92325C319.33017,479.44263,318.243,478.4359,317.49808,477.80457C316.507,476.96243,316.1435,476.70746,315.83737,476.70612C315.7938,476.70593,315.75137,476.71088,315.70844,476.72C315.6555,476.72913,315.60776,476.7337,315.56467,476.7335C315.40073,476.7328,315.30432,476.6628,315.24582,476.5086C315.15726,476.23904,314.3535,475.39807,314.20395,475.39743C314.17404,475.39728,313.77133,475.15625,313.32407,474.8552C312.89566,474.56973,312.595,474.428,312.4164,474.42722C312.28427,474.42664,312.21902,474.50327,312.21835,474.6559C312.21735,474.88022,313.15457,475.99094,313.34897,475.9918C313.4387,475.9922,313.6027,476.0976,313.70685,476.21768C313.811,476.33777,314.12454,476.44385,314.3937,476.44504C314.8124,476.44687,314.9317,476.5222,315.04996,476.83673C315.3013,477.48083,315.23947,477.94412,314.9105,477.94266C314.746,477.94196,314.5663,478.00098,314.52103,478.09048C314.46085,478.18985,314.29178,478.2356,314.12247,478.23486C313.91055,478.23392,313.69827,478.16006,313.69885,478.02704C313.6993,477.92236,313.56534,477.7872,313.40103,477.7416C313.23672,477.696,313.1028,477.5459,313.10342,477.41132C313.1041,477.26178,312.98538,477.05188,312.83633,476.94656C312.6464,476.80127,312.53,476.7378,312.47415,476.7366L312.47165,476.7366C312.26373,476.73932,312.95,477.6608,313.787,478.38632C314.219,478.7621,314.5763,479.12256,314.59085,479.21234C314.5905,479.2871,314.8284,479.6022,315.1262,479.88763C315.55795,480.32318,315.63193,480.50296,315.60007,480.93646C315.56458,481.32507,315.38657,481.5268,315.14175,481.5257C314.9534,481.52487,314.72552,481.404,314.49252,481.15588C314.29907,480.94568,314.13565,480.7057,314.1359,480.64587C314.13617,480.58606,314.00238,480.40604,313.82364,480.24078C313.6907,480.11502,313.60403,480.0547,313.53506,480.05438C313.48044,480.05414,313.43692,480.09158,313.39035,480.1641C313.34616,480.2515,313.23,480.30646,313.10065,480.30588C313.0533,480.30566,313.00418,480.29803,312.95618,480.2818C312.8832,480.26385,312.8238,480.25446,312.7779,480.25406L312.7754,480.25406C312.55206,480.2539,312.65625,480.47275,313.08768,480.97025C313.3257,481.2554,313.53342,481.6302,313.53268,481.79468C313.53195,481.95917,313.63556,482.19888,313.7546,482.33398C313.8737,482.45413,313.9772,482.72375,313.97626,482.9331C313.9751,483.19867,313.88834,483.3288,313.72702,483.3281C313.47958,483.327,313.05673,483.01807,312.49808,482.41815C312.0367,481.92264,311.50116,481.2922,311.30795,481.0222C311.1147,480.76712,310.69748,480.42133,310.36917,480.2704C310.05588,480.1045,309.698,479.8786,309.56393,479.7584C309.46887,479.6551,309.40607,479.6025,309.3383,479.6022C309.26813,479.6019,309.1926,479.65762,309.0704,479.77115C308.90366,479.92267,308.67636,479.99704,308.44342,479.99603C308.17303,479.99484,307.89496,479.89203,307.695,479.6903C307.55707,479.55112,307.36578,479.45413,307.2373,479.45358C307.2133,479.45346,307.1915,479.45673,307.17264,479.46368C306.87305,479.582,306.91672,479.85138,307.23074,479.85275C307.38028,479.85342,307.6784,480.0641,307.9016,480.31927C308.07785,480.52078,308.22644,480.6476,308.28134,480.64786C308.29596,480.64792,308.30396,480.63898,308.30402,480.62012C308.3045,480.51047,308.38544,480.4596,308.49997,480.46008C308.651,480.46075,308.86053,480.55072,309.0214,480.713C309.27448,480.96835,309.55667,481.40326,309.73434,481.8078C310.16348,482.82657,310.2971,483.05145,310.53607,483.11234C310.79,483.17325,310.9827,483.56293,310.9807,484.0115C310.9802,484.13318,310.87033,484.1927,310.69864,484.19193C310.51163,484.1911,310.25125,484.1187,309.97897,483.97717C309.75522,483.85654,309.367,483.72025,309.14288,483.6744C308.9188,483.62857,308.68018,483.47797,308.636,483.32825C308.53656,483.06375,308.15234,482.64996,308.032,482.64944C308.00925,482.64935,307.9959,482.66403,307.99576,482.69736C307.9953,482.80557,307.87424,482.8528,307.72293,482.85214C307.49783,482.85117,307.20578,482.7441,307.14395,482.57394C307.08472,482.43912,306.92117,482.22903,306.7721,482.1237C306.62302,482.01837,306.50406,481.8683,306.50436,481.79352C306.50464,481.7337,306.2816,481.4486,306.0137,481.1633C304.8229,479.9169,303.60306,478.47592,303.49963,478.19135C303.44055,478.02658,303.33646,477.89154,303.2617,477.8912C303.20187,477.89096,303.0234,477.66586,302.89014,477.38113C302.7568,477.09644,302.51874,476.82623,302.3545,476.7657C302.17526,476.72003,302.04147,476.54,302.0421,476.39047C302.04352,476.07645,301.75998,475.9406,301.08707,475.93762C300.72818,475.93607,300.5193,475.83044,300.31122,475.5454C299.791,474.82532,298.27206,473.38306,298.0328,473.38202C297.94308,473.38162,297.7646,473.17148,297.646,472.93167C297.3199,472.30103,294.93677,469.8835,294.66272,469.88232C294.65018,469.88226,294.64206,469.88727,294.63873,469.8977C294.59348,469.9872,294.77133,470.3469,295.02417,470.66205C295.277,470.97717,295.48462,471.3669,295.4839,471.5314C295.4832,471.6959,295.58673,471.95056,295.70563,472.1156C295.8246,472.26566,295.92816,472.52036,295.92755,472.65494C295.92688,472.80447,296.04553,473.0293,296.1944,473.1795C296.62622,473.60007,297.11542,474.5593,297.11365,474.96304C297.11246,475.2322,297.0373,475.3216,296.76813,475.3204C296.34946,475.31854,295.29224,474.29703,295.17477,473.803C295.11597,473.57846,294.93726,473.41318,294.62357,473.33704C294.19043,473.2155,293.53546,472.53967,293.537,472.19574C293.53732,472.12097,293.40366,471.911,293.24002,471.71588C293.0764,471.52075,292.9428,471.29587,292.9432,471.20615C292.92917,470.99673,292.40857,470.36636,292.24408,470.36563C292.00482,470.36456,291.00787,469.23865,291.0091,468.96954C291.00983,468.80505,290.8906,468.7148,290.63638,468.71368C290.39716,468.71265,290.26297,468.6223,290.26358,468.48773C290.2641,468.3681,290.15988,468.26297,290.04025,468.26245C289.93558,468.262,289.77148,468.17154,289.71213,468.0666C289.65283,467.9467,289.17612,467.54083,288.6694,467.1498C288.16263,466.7737,287.70105,466.3231,287.65692,466.1584C287.61273,466.00867,287.38913,465.84317,287.1651,465.78238C286.941,465.7365,286.62802,465.49588,286.4646,465.2559C286.28635,464.98593,286.03293,464.80536,285.83853,464.8045C285.64413,464.80365,285.4204,464.6681,285.31647,464.50314C285.21252,464.33817,285.0187,464.20273,284.88412,464.20215C284.70468,464.20135,284.6158,464.00656,284.54352,463.45294C284.48553,463.034,284.50247,462.58548,284.57785,462.4512C284.74677,462.17245,284.6423,461.69656,284.44455,461.6957C284.4307,461.69565,284.41638,461.69794,284.4017,461.70273C284.31183,461.73224,284.22116,461.95615,284.1902,462.19528C284.09637,463.12198,284.00586,463.30103,283.64697,463.29944C283.1834,463.2974,283.10965,463.07278,283.11646,461.53256C283.1196,460.8148,283.07898,459.85757,283.02115,459.40872L282.90515,458.58575L282.82773,459.18356C282.7657,459.69168,282.69052,459.78107,282.34637,459.82443C282.2879,459.83118,282.23785,459.8358,282.1944,459.8356C281.95987,459.83456,281.91748,459.69397,281.78177,458.99948C281.69418,458.52057,281.56183,458.01154,281.48767,457.87662C281.3986,457.72668,281.33978,457.50214,281.34036,457.36755C281.34125,457.16943,281.04752,456.8125,280.75784,456.59372L280.755,456.5937L280.90527,414.83887L280.90244,414.83887C281.46942,414.75708,282.25848,414.29144,282.8343,413.69418C283.10464,413.4262,283.5245,413.15887,283.79395,413.10025C284.04837,413.05652,284.55814,412.74475,284.91855,412.4024C285.2939,412.06012,285.66925,411.71786,285.77426,411.64355C286.20956,411.27164,287.04883,410.85657,287.52783,410.754C287.8122,410.69543,288.29163,410.48822,288.6065,410.2952C288.9214,410.1022,289.29596,409.93936,289.43054,409.93994C289.58008,409.9406,289.79004,409.80695,289.89542,409.6429C290.00082,409.47888,290.2407,409.34537,290.4351,409.34622C290.6295,409.34708,290.86917,409.24347,290.97437,409.1243C291.07956,409.00513,291.3193,408.90152,291.49875,408.9023C291.6782,408.9031,292.00775,408.76996,292.21783,408.6064C292.42792,408.44287,292.74252,408.30966,292.92197,408.31046C293.1014,408.31125,293.4308,408.223,293.64066,408.10428C294.62988,407.58527,297.0699,407.01285,298.65536,406.9301C299.9716,406.86118,300.34576,406.78806,300.70578,406.53543C300.97043,406.3416,301.1642,406.26184,301.4829,406.26324C301.5797,406.26367,301.68808,406.2716,301.81348,406.2861C301.92557,406.3026,302.03665,406.31055,302.1441,406.31104C302.43768,406.31232,302.70416,406.258,302.89066,406.17123C303.1262,406.045,303.91913,405.9597,304.48044,405.96216 Z"/> </g> </g> </g> </svg>